<mxfile host="www.draw.io" modified="2020-01-14T01:26:16.412Z" agent="Mozilla/5.0 (Windows NT 10.0; Win64; x64) AppleWebKit/537.36 (KHTML, like Gecko) Chrome/79.0.3945.117 Safari/537.36" etag="BP7AxGjdnIp_P9-fA-4Q" version="12.5.1" type="github">
  <diagram id="C5RBs43oDa-KdzZeNtuy" name="Page-1">
    <mxGraphModel dx="4209" dy="1190" grid="1" gridSize="10" guides="1" tooltips="1" connect="1" arrows="1" fold="1" page="1" pageScale="1" pageWidth="1654" pageHeight="2336" math="1" shadow="0">
      <root>
        <mxCell id="WIyWlLk6GJQsqaUBKTNV-0"/>
        <mxCell id="WIyWlLk6GJQsqaUBKTNV-1" parent="WIyWlLk6GJQsqaUBKTNV-0"/>
        <mxCell id="U9G6t_5P7GZVKfGeQdNS-464" value="" style="edgeStyle=none;rounded=0;orthogonalLoop=1;jettySize=auto;html=1;entryX=0;entryY=0.5;entryDx=0;entryDy=0;" parent="WIyWlLk6GJQsqaUBKTNV-1" source="U9G6t_5P7GZVKfGeQdNS-0" target="U9G6t_5P7GZVKfGeQdNS-74" edge="1">
          <mxGeometry relative="1" as="geometry">
            <mxPoint x="342.6300000000001" y="525" as="targetPoint"/>
          </mxGeometry>
        </mxCell>
        <mxCell id="U9G6t_5P7GZVKfGeQdNS-0" value="&lt;font face=&quot;Times New Roman&quot;&gt;Power Lines&lt;/font&gt;" style="rounded=1;whiteSpace=wrap;html=1;fillColor=#fff2cc;strokeColor=#d6b656;" parent="WIyWlLk6GJQsqaUBKTNV-1" vertex="1">
          <mxGeometry x="142.63" y="495" width="120" height="60" as="geometry"/>
        </mxCell>
        <mxCell id="U9G6t_5P7GZVKfGeQdNS-186" style="edgeStyle=orthogonalEdgeStyle;rounded=0;orthogonalLoop=1;jettySize=auto;html=1;exitX=1;exitY=0.5;exitDx=0;exitDy=0;entryX=0;entryY=0.5;entryDx=0;entryDy=0;" parent="WIyWlLk6GJQsqaUBKTNV-1" source="U9G6t_5P7GZVKfGeQdNS-1" target="U9G6t_5P7GZVKfGeQdNS-78" edge="1">
          <mxGeometry relative="1" as="geometry"/>
        </mxCell>
        <mxCell id="U9G6t_5P7GZVKfGeQdNS-1" value="&lt;font face=&quot;Times New Roman&quot;&gt;Roads (A,B,C)&lt;/font&gt;" style="rounded=1;whiteSpace=wrap;html=1;fillColor=#fff2cc;strokeColor=#d6b656;" parent="WIyWlLk6GJQsqaUBKTNV-1" vertex="1">
          <mxGeometry x="142.63" y="615.31" width="120" height="60" as="geometry"/>
        </mxCell>
        <mxCell id="U9G6t_5P7GZVKfGeQdNS-388" style="edgeStyle=orthogonalEdgeStyle;rounded=0;orthogonalLoop=1;jettySize=auto;html=1;exitX=1;exitY=0.5;exitDx=0;exitDy=0;entryX=0.352;entryY=0.024;entryDx=0;entryDy=0;entryPerimeter=0;" parent="WIyWlLk6GJQsqaUBKTNV-1" source="U9G6t_5P7GZVKfGeQdNS-2" target="U9G6t_5P7GZVKfGeQdNS-86" edge="1">
          <mxGeometry relative="1" as="geometry"/>
        </mxCell>
        <mxCell id="U9G6t_5P7GZVKfGeQdNS-2" value="&lt;font face=&quot;Times New Roman&quot;&gt;Urban Areas Unsuitable&lt;/font&gt;" style="rounded=1;whiteSpace=wrap;html=1;fillColor=#dae8fc;strokeColor=#6c8ebf;" parent="WIyWlLk6GJQsqaUBKTNV-1" vertex="1">
          <mxGeometry x="562.63" y="887.5" width="120" height="60" as="geometry"/>
        </mxCell>
        <mxCell id="U9G6t_5P7GZVKfGeQdNS-188" style="edgeStyle=orthogonalEdgeStyle;rounded=0;orthogonalLoop=1;jettySize=auto;html=1;exitX=1;exitY=0.5;exitDx=0;exitDy=0;entryX=0;entryY=0.5;entryDx=0;entryDy=0;" parent="WIyWlLk6GJQsqaUBKTNV-1" source="U9G6t_5P7GZVKfGeQdNS-3" target="U9G6t_5P7GZVKfGeQdNS-75" edge="1">
          <mxGeometry relative="1" as="geometry">
            <Array as="points">
              <mxPoint x="311" y="761"/>
            </Array>
          </mxGeometry>
        </mxCell>
        <mxCell id="U9G6t_5P7GZVKfGeQdNS-3" value="&lt;font face=&quot;Times New Roman&quot;&gt;Wind Speed&lt;/font&gt;" style="rounded=1;whiteSpace=wrap;html=1;fillColor=#fff2cc;strokeColor=#d6b656;" parent="WIyWlLk6GJQsqaUBKTNV-1" vertex="1">
          <mxGeometry x="142.63" y="730.9399999999999" width="120" height="60" as="geometry"/>
        </mxCell>
        <mxCell id="U9G6t_5P7GZVKfGeQdNS-367" style="edgeStyle=orthogonalEdgeStyle;rounded=0;orthogonalLoop=1;jettySize=auto;html=1;exitX=1;exitY=0.5;exitDx=0;exitDy=0;entryX=0;entryY=0.5;entryDx=0;entryDy=0;" parent="WIyWlLk6GJQsqaUBKTNV-1" source="U9G6t_5P7GZVKfGeQdNS-4" target="U9G6t_5P7GZVKfGeQdNS-80" edge="1">
          <mxGeometry relative="1" as="geometry">
            <Array as="points">
              <mxPoint x="270" y="850"/>
              <mxPoint x="270" y="920"/>
            </Array>
          </mxGeometry>
        </mxCell>
        <mxCell id="U9G6t_5P7GZVKfGeQdNS-4" value="&lt;font face=&quot;Times New Roman&quot;&gt;Residential Areas&lt;br&gt;(exported shapefile from LCM2015)&lt;br&gt;&lt;/font&gt;" style="rounded=1;whiteSpace=wrap;html=1;fillColor=#fff2cc;strokeColor=#d6b656;" parent="WIyWlLk6GJQsqaUBKTNV-1" vertex="1">
          <mxGeometry x="142.63" y="820" width="120" height="60" as="geometry"/>
        </mxCell>
        <mxCell id="U9G6t_5P7GZVKfGeQdNS-7" value="&lt;font face=&quot;Times New Roman&quot; style=&quot;font-size: 20px&quot;&gt;Urban Constraints&lt;/font&gt;" style="rounded=0;whiteSpace=wrap;html=1;rotation=-90;textDirection=rtl;verticalAlign=middle;horizontal=1;labelBackgroundColor=none;fillColor=#e3c800;strokeColor=#B09500;fontColor=#000000;" parent="WIyWlLk6GJQsqaUBKTNV-1" vertex="1">
          <mxGeometry x="-56.19000000000001" y="948.13" width="318.16" height="30" as="geometry"/>
        </mxCell>
        <mxCell id="U9G6t_5P7GZVKfGeQdNS-9" value="&lt;p&gt;&lt;font face=&quot;Times New Roman&quot; style=&quot;font-size: 20px&quot;&gt;Landscape Constraints&lt;/font&gt;&lt;/p&gt;" style="rounded=0;whiteSpace=wrap;html=1;rotation=-90;horizontal=1;fillColor=#e3c800;strokeColor=#B09500;fontColor=#000000;labelBackgroundColor=none;" parent="WIyWlLk6GJQsqaUBKTNV-1" vertex="1">
          <mxGeometry x="1188.8199999999997" y="1018.75" width="390.35" height="37.5" as="geometry"/>
        </mxCell>
        <mxCell id="U9G6t_5P7GZVKfGeQdNS-10" value="&lt;font face=&quot;Times New Roman&quot; style=&quot;font-size: 20px&quot;&gt;Ecological Constraints&lt;/font&gt;" style="rounded=0;whiteSpace=wrap;html=1;rotation=-90;horizontal=1;spacing=2;textDirection=ltr;verticalAlign=middle;fillColor=#e3c800;strokeColor=#B09500;fontColor=#000000;labelBackgroundColor=none;" parent="WIyWlLk6GJQsqaUBKTNV-1" vertex="1">
          <mxGeometry x="1150" y="578.75" width="467.99" height="37.5" as="geometry"/>
        </mxCell>
        <mxCell id="U9G6t_5P7GZVKfGeQdNS-14" value="&lt;font face=&quot;Times New Roman&quot; style=&quot;font-size: 20px&quot;&gt;Economic/Infrastructure Constraints&lt;/font&gt;" style="rounded=0;whiteSpace=wrap;html=1;rotation=-90;textDirection=rtl;verticalAlign=middle;horizontal=1;labelBackgroundColor=none;fillColor=#e3c800;strokeColor=#B09500;fontColor=#000000;" parent="WIyWlLk6GJQsqaUBKTNV-1" vertex="1">
          <mxGeometry x="-56.849999999999994" y="621.88" width="319.48" height="30" as="geometry"/>
        </mxCell>
        <mxCell id="U9G6t_5P7GZVKfGeQdNS-380" value="" style="edgeStyle=orthogonalEdgeStyle;rounded=0;orthogonalLoop=1;jettySize=auto;html=1;" parent="WIyWlLk6GJQsqaUBKTNV-1" source="U9G6t_5P7GZVKfGeQdNS-15" target="U9G6t_5P7GZVKfGeQdNS-81" edge="1">
          <mxGeometry relative="1" as="geometry"/>
        </mxCell>
        <mxCell id="U9G6t_5P7GZVKfGeQdNS-15" value="&lt;font face=&quot;Times New Roman&quot;&gt;Aviation Sites&lt;/font&gt;" style="rounded=1;whiteSpace=wrap;html=1;fillColor=#fff2cc;strokeColor=#d6b656;" parent="WIyWlLk6GJQsqaUBKTNV-1" vertex="1">
          <mxGeometry x="142.63" y="1037.5" width="120" height="60" as="geometry"/>
        </mxCell>
        <mxCell id="U9G6t_5P7GZVKfGeQdNS-370" style="edgeStyle=orthogonalEdgeStyle;rounded=0;orthogonalLoop=1;jettySize=auto;html=1;exitX=1;exitY=0.5;exitDx=0;exitDy=0;entryX=0;entryY=0.5;entryDx=0;entryDy=0;" parent="WIyWlLk6GJQsqaUBKTNV-1" source="U9G6t_5P7GZVKfGeQdNS-16" target="U9G6t_5P7GZVKfGeQdNS-80" edge="1">
          <mxGeometry relative="1" as="geometry"/>
        </mxCell>
        <mxCell id="U9G6t_5P7GZVKfGeQdNS-16" value="&lt;font face=&quot;Times New Roman&quot;&gt;Heritage Sites&lt;/font&gt;" style="rounded=1;whiteSpace=wrap;html=1;spacing=1;fillColor=#fff2cc;strokeColor=#d6b656;" parent="WIyWlLk6GJQsqaUBKTNV-1" vertex="1">
          <mxGeometry x="142.63" y="890" width="120" height="60" as="geometry"/>
        </mxCell>
        <mxCell id="U9G6t_5P7GZVKfGeQdNS-461" value="" style="edgeStyle=none;rounded=0;orthogonalLoop=1;jettySize=auto;html=1;entryX=0.585;entryY=0.025;entryDx=0;entryDy=0;entryPerimeter=0;" parent="WIyWlLk6GJQsqaUBKTNV-1" source="U9G6t_5P7GZVKfGeQdNS-18" target="U9G6t_5P7GZVKfGeQdNS-86" edge="1">
          <mxGeometry relative="1" as="geometry">
            <mxPoint x="722.6300000000001" y="760.94" as="targetPoint"/>
          </mxGeometry>
        </mxCell>
        <mxCell id="U9G6t_5P7GZVKfGeQdNS-18" value="&lt;font face=&quot;Times New Roman&quot;&gt;Wind Speed Unsuitable&lt;/font&gt;" style="rounded=1;whiteSpace=wrap;html=1;fillColor=#dae8fc;strokeColor=#6c8ebf;" parent="WIyWlLk6GJQsqaUBKTNV-1" vertex="1">
          <mxGeometry x="562.63" y="730.94" width="120" height="60" as="geometry"/>
        </mxCell>
        <mxCell id="U9G6t_5P7GZVKfGeQdNS-335" style="edgeStyle=none;rounded=0;orthogonalLoop=1;jettySize=auto;html=1;exitX=1;exitY=0.5;exitDx=0;exitDy=0;entryX=0.756;entryY=0.057;entryDx=0;entryDy=0;entryPerimeter=0;" parent="WIyWlLk6GJQsqaUBKTNV-1" source="U9G6t_5P7GZVKfGeQdNS-19" target="U9G6t_5P7GZVKfGeQdNS-86" edge="1">
          <mxGeometry relative="1" as="geometry"/>
        </mxCell>
        <mxCell id="U9G6t_5P7GZVKfGeQdNS-19" value="&lt;font face=&quot;Times New Roman&quot;&gt;Roads Unsuitable&lt;/font&gt;" style="rounded=1;whiteSpace=wrap;html=1;fillColor=#dae8fc;strokeColor=#6c8ebf;" parent="WIyWlLk6GJQsqaUBKTNV-1" vertex="1">
          <mxGeometry x="562.63" y="615" width="120" height="60" as="geometry"/>
        </mxCell>
        <mxCell id="U9G6t_5P7GZVKfGeQdNS-264" style="edgeStyle=none;rounded=0;orthogonalLoop=1;jettySize=auto;html=1;exitX=1;exitY=0.5;exitDx=0;exitDy=0;entryX=0.933;entryY=0.231;entryDx=0;entryDy=0;entryPerimeter=0;" parent="WIyWlLk6GJQsqaUBKTNV-1" source="U9G6t_5P7GZVKfGeQdNS-20" target="U9G6t_5P7GZVKfGeQdNS-86" edge="1">
          <mxGeometry relative="1" as="geometry">
            <mxPoint x="710" y="525" as="targetPoint"/>
          </mxGeometry>
        </mxCell>
        <mxCell id="U9G6t_5P7GZVKfGeQdNS-20" value="&lt;font face=&quot;Times New Roman&quot;&gt;Power Lines Unsuitable&lt;/font&gt;" style="rounded=1;whiteSpace=wrap;html=1;fillColor=#dae8fc;strokeColor=#6c8ebf;" parent="WIyWlLk6GJQsqaUBKTNV-1" vertex="1">
          <mxGeometry x="562.63" y="495" width="120" height="60" as="geometry"/>
        </mxCell>
        <mxCell id="U9G6t_5P7GZVKfGeQdNS-286" value="" style="edgeStyle=none;rounded=0;orthogonalLoop=1;jettySize=auto;html=1;" parent="WIyWlLk6GJQsqaUBKTNV-1" source="U9G6t_5P7GZVKfGeQdNS-21" edge="1">
          <mxGeometry relative="1" as="geometry">
            <mxPoint x="742.6300000000001" y="159.9999999999999" as="targetPoint"/>
          </mxGeometry>
        </mxCell>
        <mxCell id="U9G6t_5P7GZVKfGeQdNS-21" value="&lt;font face=&quot;Times New Roman&quot;&gt;Study Area&lt;/font&gt;" style="rounded=1;whiteSpace=wrap;html=1;fillColor=#fff2cc;strokeColor=#d6b656;" parent="WIyWlLk6GJQsqaUBKTNV-1" vertex="1">
          <mxGeometry x="682.63" y="60" width="120" height="60" as="geometry"/>
        </mxCell>
        <mxCell id="U9G6t_5P7GZVKfGeQdNS-72" style="edgeStyle=orthogonalEdgeStyle;rounded=0;orthogonalLoop=1;jettySize=auto;html=1;exitX=0;exitY=0.5;exitDx=0;exitDy=0;entryX=1;entryY=0.5;entryDx=0;entryDy=0;" parent="WIyWlLk6GJQsqaUBKTNV-1" source="U9G6t_5P7GZVKfGeQdNS-391" target="U9G6t_5P7GZVKfGeQdNS-69" edge="1">
          <mxGeometry relative="1" as="geometry"/>
        </mxCell>
        <mxCell id="U9G6t_5P7GZVKfGeQdNS-22" value="&lt;font face=&quot;Times New Roman&quot;&gt;Land Cover Type (LCM 2015)&lt;/font&gt;" style="rounded=1;whiteSpace=wrap;html=1;fillColor=#fff2cc;strokeColor=#d6b656;" parent="WIyWlLk6GJQsqaUBKTNV-1" vertex="1">
          <mxGeometry x="1342.63" y="170" width="120" height="60" as="geometry"/>
        </mxCell>
        <mxCell id="U9G6t_5P7GZVKfGeQdNS-401" style="edgeStyle=orthogonalEdgeStyle;rounded=0;orthogonalLoop=1;jettySize=auto;html=1;exitX=0.5;exitY=1;exitDx=0;exitDy=0;entryX=0.5;entryY=0;entryDx=0;entryDy=0;" parent="WIyWlLk6GJQsqaUBKTNV-1" source="U9G6t_5P7GZVKfGeQdNS-23" target="U9G6t_5P7GZVKfGeQdNS-46" edge="1">
          <mxGeometry relative="1" as="geometry"/>
        </mxCell>
        <mxCell id="U9G6t_5P7GZVKfGeQdNS-402" style="edgeStyle=orthogonalEdgeStyle;rounded=0;orthogonalLoop=1;jettySize=auto;html=1;exitX=1;exitY=0.5;exitDx=0;exitDy=0;entryX=0;entryY=0.5;entryDx=0;entryDy=0;" parent="WIyWlLk6GJQsqaUBKTNV-1" source="U9G6t_5P7GZVKfGeQdNS-23" target="U9G6t_5P7GZVKfGeQdNS-47" edge="1">
          <mxGeometry relative="1" as="geometry"/>
        </mxCell>
        <mxCell id="U9G6t_5P7GZVKfGeQdNS-23" value="&lt;font face=&quot;Times New Roman&quot;&gt;DEM&lt;/font&gt;" style="rounded=1;whiteSpace=wrap;html=1;fillColor=#fff2cc;strokeColor=#d6b656;" parent="WIyWlLk6GJQsqaUBKTNV-1" vertex="1">
          <mxGeometry x="129.99999999999997" y="120" width="120" height="60" as="geometry"/>
        </mxCell>
        <mxCell id="U9G6t_5P7GZVKfGeQdNS-310" style="edgeStyle=orthogonalEdgeStyle;rounded=0;orthogonalLoop=1;jettySize=auto;html=1;entryX=1;entryY=0.5;entryDx=0;entryDy=0;" parent="WIyWlLk6GJQsqaUBKTNV-1" source="U9G6t_5P7GZVKfGeQdNS-32" target="U9G6t_5P7GZVKfGeQdNS-128" edge="1">
          <mxGeometry relative="1" as="geometry">
            <mxPoint x="1201.7385714285715" y="998.5714285714287" as="targetPoint"/>
          </mxGeometry>
        </mxCell>
        <mxCell id="U9G6t_5P7GZVKfGeQdNS-32" value="&lt;font face=&quot;Times New Roman&quot;&gt;Ancient Woodland&lt;/font&gt;" style="rounded=1;whiteSpace=wrap;html=1;fillColor=#fff2cc;strokeColor=#d6b656;" parent="WIyWlLk6GJQsqaUBKTNV-1" vertex="1">
          <mxGeometry x="1219.9999999999998" y="1080" width="120" height="60" as="geometry"/>
        </mxCell>
        <mxCell id="U9G6t_5P7GZVKfGeQdNS-309" style="edgeStyle=orthogonalEdgeStyle;rounded=0;orthogonalLoop=1;jettySize=auto;html=1;entryX=1;entryY=0.5;entryDx=0;entryDy=0;" parent="WIyWlLk6GJQsqaUBKTNV-1" source="U9G6t_5P7GZVKfGeQdNS-34" target="U9G6t_5P7GZVKfGeQdNS-129" edge="1">
          <mxGeometry relative="1" as="geometry"/>
        </mxCell>
        <mxCell id="U9G6t_5P7GZVKfGeQdNS-34" value="&lt;font face=&quot;Times New Roman&quot;&gt;Hedgerows&lt;/font&gt;" style="rounded=1;whiteSpace=wrap;html=1;fillColor=#fff2cc;strokeColor=#d6b656;" parent="WIyWlLk6GJQsqaUBKTNV-1" vertex="1">
          <mxGeometry x="1219.9999999999998" y="1153.75" width="120" height="60" as="geometry"/>
        </mxCell>
        <mxCell id="ZVy_70IbFK7dX3DaikD2-7" style="edgeStyle=orthogonalEdgeStyle;rounded=0;orthogonalLoop=1;jettySize=auto;html=1;exitX=0;exitY=0.5;exitDx=0;exitDy=0;entryX=1;entryY=0.5;entryDx=0;entryDy=0;" edge="1" parent="WIyWlLk6GJQsqaUBKTNV-1" source="U9G6t_5P7GZVKfGeQdNS-35" target="U9G6t_5P7GZVKfGeQdNS-128">
          <mxGeometry relative="1" as="geometry"/>
        </mxCell>
        <mxCell id="U9G6t_5P7GZVKfGeQdNS-35" value="&lt;font face=&quot;Times New Roman&quot;&gt;Heritage Coast&lt;/font&gt;" style="rounded=1;whiteSpace=wrap;html=1;fillColor=#fff2cc;strokeColor=#d6b656;" parent="WIyWlLk6GJQsqaUBKTNV-1" vertex="1">
          <mxGeometry x="1219.9999999999998" y="1005" width="120" height="60" as="geometry"/>
        </mxCell>
        <mxCell id="ZVy_70IbFK7dX3DaikD2-6" style="edgeStyle=orthogonalEdgeStyle;rounded=0;orthogonalLoop=1;jettySize=auto;html=1;exitX=0;exitY=0.5;exitDx=0;exitDy=0;entryX=1;entryY=0.5;entryDx=0;entryDy=0;" edge="1" parent="WIyWlLk6GJQsqaUBKTNV-1" source="U9G6t_5P7GZVKfGeQdNS-36" target="U9G6t_5P7GZVKfGeQdNS-128">
          <mxGeometry relative="1" as="geometry"/>
        </mxCell>
        <mxCell id="U9G6t_5P7GZVKfGeQdNS-36" value="&lt;font face=&quot;Times New Roman&quot;&gt;National Parks&lt;/font&gt;" style="rounded=1;whiteSpace=wrap;html=1;fillColor=#fff2cc;strokeColor=#d6b656;" parent="WIyWlLk6GJQsqaUBKTNV-1" vertex="1">
          <mxGeometry x="1219.9999999999998" y="932.5" width="120" height="60" as="geometry"/>
        </mxCell>
        <mxCell id="ZVy_70IbFK7dX3DaikD2-5" style="edgeStyle=orthogonalEdgeStyle;rounded=0;orthogonalLoop=1;jettySize=auto;html=1;exitX=0;exitY=0.5;exitDx=0;exitDy=0;entryX=1;entryY=0.5;entryDx=0;entryDy=0;" edge="1" parent="WIyWlLk6GJQsqaUBKTNV-1" source="U9G6t_5P7GZVKfGeQdNS-37" target="U9G6t_5P7GZVKfGeQdNS-128">
          <mxGeometry relative="1" as="geometry"/>
        </mxCell>
        <mxCell id="U9G6t_5P7GZVKfGeQdNS-37" value="&lt;font face=&quot;Times New Roman&quot;&gt;AONB&lt;/font&gt;" style="rounded=1;whiteSpace=wrap;html=1;fillColor=#fff2cc;strokeColor=#d6b656;" parent="WIyWlLk6GJQsqaUBKTNV-1" vertex="1">
          <mxGeometry x="1219.9999999999998" y="857.5" width="120" height="60" as="geometry"/>
        </mxCell>
        <mxCell id="U9G6t_5P7GZVKfGeQdNS-403" style="edgeStyle=orthogonalEdgeStyle;rounded=0;orthogonalLoop=1;jettySize=auto;html=1;exitX=1;exitY=0.5;exitDx=0;exitDy=0;entryX=0;entryY=0.5;entryDx=0;entryDy=0;" parent="WIyWlLk6GJQsqaUBKTNV-1" source="U9G6t_5P7GZVKfGeQdNS-46" target="U9G6t_5P7GZVKfGeQdNS-332" edge="1">
          <mxGeometry relative="1" as="geometry"/>
        </mxCell>
        <mxCell id="U9G6t_5P7GZVKfGeQdNS-46" value="&lt;p&gt;&lt;font face=&quot;Times New Roman&quot; style=&quot;font-size: 9px&quot;&gt;Slope (Spatial Analyst) Set&amp;nbsp;&lt;/font&gt;&lt;span style=&quot;font-size: 9px ; font-family: &amp;#34;times new roman&amp;#34;&quot;&gt;Processing Extent &amp;amp; Mask to Study Area&lt;/span&gt;&lt;/p&gt;" style="shape=hexagon;perimeter=hexagonPerimeter2;whiteSpace=wrap;html=1;labelBackgroundColor=none;align=center;fillColor=#f5f5f5;strokeColor=#666666;fontColor=#333333;" parent="WIyWlLk6GJQsqaUBKTNV-1" vertex="1">
          <mxGeometry x="130" y="210" width="120" height="80" as="geometry"/>
        </mxCell>
        <mxCell id="U9G6t_5P7GZVKfGeQdNS-54" style="edgeStyle=orthogonalEdgeStyle;rounded=0;orthogonalLoop=1;jettySize=auto;html=1;exitX=1;exitY=0.5;exitDx=0;exitDy=0;entryX=0;entryY=0.5;entryDx=0;entryDy=0;" parent="WIyWlLk6GJQsqaUBKTNV-1" source="U9G6t_5P7GZVKfGeQdNS-47" target="U9G6t_5P7GZVKfGeQdNS-52" edge="1">
          <mxGeometry relative="1" as="geometry"/>
        </mxCell>
        <mxCell id="U9G6t_5P7GZVKfGeQdNS-405" style="edgeStyle=orthogonalEdgeStyle;rounded=0;orthogonalLoop=1;jettySize=auto;html=1;exitX=1;exitY=0.5;exitDx=0;exitDy=0;entryX=0;entryY=0.5;entryDx=0;entryDy=0;" parent="WIyWlLk6GJQsqaUBKTNV-1" source="U9G6t_5P7GZVKfGeQdNS-47" target="U9G6t_5P7GZVKfGeQdNS-400" edge="1">
          <mxGeometry relative="1" as="geometry"/>
        </mxCell>
        <mxCell id="U9G6t_5P7GZVKfGeQdNS-47" value="&lt;font style=&quot;font-size: 12px ; background-color: rgb(245 , 245 , 245)&quot; face=&quot;Times New Roman&quot;&gt;Raster Calculator Area&amp;nbsp;&lt;span style=&quot;color: rgb(34 , 34 , 34) ; text-align: left&quot;&gt;≥ 2000m&lt;/span&gt;&lt;/font&gt;" style="shape=hexagon;perimeter=hexagonPerimeter2;whiteSpace=wrap;html=1;labelBackgroundColor=none;fillColor=#f5f5f5;strokeColor=#666666;fontColor=#333333;" parent="WIyWlLk6GJQsqaUBKTNV-1" vertex="1">
          <mxGeometry x="270" y="110" width="120" height="80" as="geometry"/>
        </mxCell>
        <mxCell id="U9G6t_5P7GZVKfGeQdNS-57" style="edgeStyle=orthogonalEdgeStyle;rounded=0;orthogonalLoop=1;jettySize=auto;html=1;exitX=1;exitY=0.5;exitDx=0;exitDy=0;entryX=0;entryY=0.5;entryDx=0;entryDy=0;" parent="WIyWlLk6GJQsqaUBKTNV-1" source="U9G6t_5P7GZVKfGeQdNS-52" edge="1">
          <mxGeometry relative="1" as="geometry">
            <mxPoint x="682.3333333333339" y="199.66666666666674" as="targetPoint"/>
            <Array as="points">
              <mxPoint x="670" y="150"/>
              <mxPoint x="670" y="200"/>
            </Array>
          </mxGeometry>
        </mxCell>
        <mxCell id="U9G6t_5P7GZVKfGeQdNS-52" value="&lt;font face=&quot;Times New Roman&quot;&gt;Elevation Unsuitable&lt;/font&gt;" style="rounded=1;whiteSpace=wrap;html=1;labelBackgroundColor=none;fillColor=#dae8fc;strokeColor=#6c8ebf;" parent="WIyWlLk6GJQsqaUBKTNV-1" vertex="1">
          <mxGeometry x="535.55" y="120" width="120" height="60" as="geometry"/>
        </mxCell>
        <mxCell id="U9G6t_5P7GZVKfGeQdNS-59" style="edgeStyle=orthogonalEdgeStyle;rounded=0;orthogonalLoop=1;jettySize=auto;html=1;exitX=1;exitY=0.5;exitDx=0;exitDy=0;entryX=0;entryY=0.5;entryDx=0;entryDy=0;" parent="WIyWlLk6GJQsqaUBKTNV-1" source="U9G6t_5P7GZVKfGeQdNS-53" edge="1">
          <mxGeometry relative="1" as="geometry">
            <mxPoint x="682.3333333333339" y="199.66666666666674" as="targetPoint"/>
            <Array as="points">
              <mxPoint x="670" y="250"/>
              <mxPoint x="670" y="200"/>
            </Array>
          </mxGeometry>
        </mxCell>
        <mxCell id="U9G6t_5P7GZVKfGeQdNS-53" value="&lt;font face=&quot;Times New Roman&quot;&gt;Slope Unsuitable&lt;/font&gt;" style="rounded=1;whiteSpace=wrap;html=1;labelBackgroundColor=none;fillColor=#dae8fc;strokeColor=#6c8ebf;" parent="WIyWlLk6GJQsqaUBKTNV-1" vertex="1">
          <mxGeometry x="535.55" y="220" width="120" height="60" as="geometry"/>
        </mxCell>
        <mxCell id="U9G6t_5P7GZVKfGeQdNS-287" value="" style="edgeStyle=none;rounded=0;orthogonalLoop=1;jettySize=auto;html=1;" parent="WIyWlLk6GJQsqaUBKTNV-1" target="U9G6t_5P7GZVKfGeQdNS-73" edge="1">
          <mxGeometry relative="1" as="geometry">
            <mxPoint x="742.6300000000001" y="239.9999999999999" as="sourcePoint"/>
          </mxGeometry>
        </mxCell>
        <mxCell id="U9G6t_5P7GZVKfGeQdNS-68" style="edgeStyle=orthogonalEdgeStyle;rounded=0;orthogonalLoop=1;jettySize=auto;html=1;exitX=0;exitY=0.5;exitDx=0;exitDy=0;entryX=1;entryY=0.5;entryDx=0;entryDy=0;" parent="WIyWlLk6GJQsqaUBKTNV-1" source="U9G6t_5P7GZVKfGeQdNS-67" edge="1">
          <mxGeometry relative="1" as="geometry">
            <mxPoint x="802.3333333333339" y="199.66666666666674" as="targetPoint"/>
          </mxGeometry>
        </mxCell>
        <mxCell id="U9G6t_5P7GZVKfGeQdNS-67" value="&lt;font face=&quot;Times New Roman&quot;&gt;Land Cover Type Unsuitable&lt;/font&gt;" style="rounded=1;whiteSpace=wrap;html=1;labelBackgroundColor=none;fillColor=#dae8fc;strokeColor=#6c8ebf;" parent="WIyWlLk6GJQsqaUBKTNV-1" vertex="1">
          <mxGeometry x="820" y="170" width="120" height="60" as="geometry"/>
        </mxCell>
        <mxCell id="U9G6t_5P7GZVKfGeQdNS-70" style="edgeStyle=orthogonalEdgeStyle;rounded=0;orthogonalLoop=1;jettySize=auto;html=1;exitX=0;exitY=0.5;exitDx=0;exitDy=0;entryX=1;entryY=0.5;entryDx=0;entryDy=0;" parent="WIyWlLk6GJQsqaUBKTNV-1" source="U9G6t_5P7GZVKfGeQdNS-395" target="U9G6t_5P7GZVKfGeQdNS-67" edge="1">
          <mxGeometry relative="1" as="geometry"/>
        </mxCell>
        <mxCell id="U9G6t_5P7GZVKfGeQdNS-69" value="&lt;font face=&quot;Times New Roman&quot;&gt;Raster Calculator&lt;br&gt;&amp;nbsp;Select unsuitable land covers&lt;/font&gt;" style="shape=hexagon;perimeter=hexagonPerimeter2;whiteSpace=wrap;html=1;labelBackgroundColor=none;fillColor=#f5f5f5;strokeColor=#666666;fontColor=#333333;" parent="WIyWlLk6GJQsqaUBKTNV-1" vertex="1">
          <mxGeometry x="1080.13" y="160" width="120" height="80" as="geometry"/>
        </mxCell>
        <mxCell id="U9G6t_5P7GZVKfGeQdNS-289" value="" style="edgeStyle=none;rounded=0;orthogonalLoop=1;jettySize=auto;html=1;entryX=1;entryY=0.5;entryDx=0;entryDy=0;" parent="WIyWlLk6GJQsqaUBKTNV-1" source="U9G6t_5P7GZVKfGeQdNS-73" target="U9G6t_5P7GZVKfGeQdNS-86" edge="1">
          <mxGeometry relative="1" as="geometry">
            <mxPoint x="743" y="470" as="targetPoint"/>
          </mxGeometry>
        </mxCell>
        <mxCell id="U9G6t_5P7GZVKfGeQdNS-73" value="&lt;font face=&quot;Times New Roman&quot;&gt;Geographically Suitable Area&lt;/font&gt;" style="rounded=0;whiteSpace=wrap;html=1;labelBackgroundColor=none;fillColor=#e1d5e7;strokeColor=#9673a6;" parent="WIyWlLk6GJQsqaUBKTNV-1" vertex="1">
          <mxGeometry x="682.63" y="330" width="120" height="60" as="geometry"/>
        </mxCell>
        <mxCell id="U9G6t_5P7GZVKfGeQdNS-462" value="" style="edgeStyle=none;rounded=0;orthogonalLoop=1;jettySize=auto;html=1;" parent="WIyWlLk6GJQsqaUBKTNV-1" source="U9G6t_5P7GZVKfGeQdNS-74" target="U9G6t_5P7GZVKfGeQdNS-20" edge="1">
          <mxGeometry relative="1" as="geometry"/>
        </mxCell>
        <mxCell id="U9G6t_5P7GZVKfGeQdNS-74" value="&lt;font face=&quot;Times New Roman&quot;&gt;&lt;br&gt;Euclidean Distance (Spatial Analyst).&lt;br&gt;&lt;/font&gt;&lt;font style=&quot;font-size: 12px ; background-color: rgb(245 , 245 , 245)&quot; face=&quot;Times New Roman&quot;&gt;&lt;span style=&quot;color: rgb(34 , 34 , 34) ; text-align: left&quot;&gt;≤&lt;/span&gt;&lt;font&gt;&lt;span style=&quot;color: rgb(34 , 34 , 34) ; text-align: left&quot;&gt;&amp;nbsp;33m/66m/88m&lt;/span&gt;&lt;br&gt;&lt;/font&gt;&lt;/font&gt;&lt;span style=&quot;color: rgba(0 , 0 , 0 , 0) ; font-family: monospace ; font-size: 0px ; white-space: nowrap&quot;&gt;%3CmxGraphModel%3E%3Croot%3E%3CmxCell%20id%3D%220%22%2F%3E%3CmxCell%20id%3D%221%22%20parent%3D%220%22%2F%3E%3CmxCell%20id%3D%222%22%20value%3D%22%26lt%3Bblockquote%26gt%3B%26lt%3Bfont%20face%3D%26quot%3BTimes%20New%20Roman%26quot%3B%26gt%3BSlope%20(Spatial%20Analyst)%20%26amp%3Bgt%3B15%25%26lt%3B%2Ffont%26gt%3B%26lt%3B%2Fblockquote%26gt%3B%22%20style%3D%22shape%3Dhexagon%3Bperimeter%3DhexagonPerimeter2%3BwhiteSpace%3Dwrap%3Bhtml%3D1%3BlabelBackgroundColor%3Dnone%3Balign%3Dcenter%3B%22%20vertex%3D%221%22%20parent%3D%221%22%3E%3CmxGeometry%20x%3D%22362.63%22%20y%3D%22210%22%20width%3D%22120%22%20height%3D%2280%22%20as%3D%22geometry%22%2F%3E%3C%2FmxCell%3E%3C%2Froot%3E%3C%2FmxGraphModel%3E&lt;/span&gt;&lt;font face=&quot;Times New Roman&quot;&gt;&amp;nbsp;&lt;/font&gt;&lt;span style=&quot;color: rgba(0 , 0 , 0 , 0) ; font-family: monospace ; font-size: 0px ; white-space: nowrap&quot;&gt;%3CmxGraphModel%3E%3Croot%3E%3CmxCell%20id%3D%220%22%2F%3E%3CmxCell%20id%3D%221%22%20parent%3D%220%22%2F%3E%3CmxCell%20id%3D%222%22%20value%3D%22%26lt%3Bblockquote%26gt%3B%26lt%3Bfont%20face%3D%26quot%3BTimes%20New%20Roman%26quot%3B%26gt%3BSlope%20(Spatial%20Analyst)%20%26amp%3Bgt%3B15%25%26lt%3B%2Ffont%26gt%3B%26lt%3B%2Fblockquote%26gt%3B%22%20style%3D%22shape%3Dhexagon%3Bperimeter%3DhexagonPerimeter2%3BwhiteSpace%3Dwrap%3Bhtml%3D1%3BlabelBackgroundColor%3Dnone%3Balign%3Dcenter%3B%22%20vertex%3D%221%22%20parent%3D%221%22%3E%3CmxGeometry%20x%3D%22362.63%22%20y%3D%22210%22%20width%3D%22120%22%20height%3D%2280%22%20as%3D%22geometry%22%2F%3E%3C%2FmxCell%3E%3C%2Froot%3E%3C%2FmxGraphModel%3E&lt;/span&gt;" style="shape=hexagon;perimeter=hexagonPerimeter2;whiteSpace=wrap;html=1;labelBackgroundColor=none;fillColor=#f5f5f5;strokeColor=#666666;fontColor=#333333;" parent="WIyWlLk6GJQsqaUBKTNV-1" vertex="1">
          <mxGeometry x="360" y="485" width="120" height="80" as="geometry"/>
        </mxCell>
        <mxCell id="U9G6t_5P7GZVKfGeQdNS-457" value="" style="edgeStyle=none;rounded=0;orthogonalLoop=1;jettySize=auto;html=1;" parent="WIyWlLk6GJQsqaUBKTNV-1" source="U9G6t_5P7GZVKfGeQdNS-75" target="U9G6t_5P7GZVKfGeQdNS-18" edge="1">
          <mxGeometry relative="1" as="geometry"/>
        </mxCell>
        <mxCell id="U9G6t_5P7GZVKfGeQdNS-75" value="&lt;font face=&quot;Times New Roman&quot;&gt;Raster Calculator. &lt;br&gt;&amp;lt; 5 (m/s @ 45m)&lt;/font&gt;" style="shape=hexagon;perimeter=hexagonPerimeter2;whiteSpace=wrap;html=1;labelBackgroundColor=none;fillColor=#f5f5f5;strokeColor=#666666;fontColor=#333333;" parent="WIyWlLk6GJQsqaUBKTNV-1" vertex="1">
          <mxGeometry x="360" y="721.25" width="120" height="80" as="geometry"/>
        </mxCell>
        <mxCell id="U9G6t_5P7GZVKfGeQdNS-196" style="edgeStyle=orthogonalEdgeStyle;rounded=0;orthogonalLoop=1;jettySize=auto;html=1;exitX=1;exitY=0.5;exitDx=0;exitDy=0;entryX=0;entryY=0.5;entryDx=0;entryDy=0;" parent="WIyWlLk6GJQsqaUBKTNV-1" source="U9G6t_5P7GZVKfGeQdNS-78" target="U9G6t_5P7GZVKfGeQdNS-19" edge="1">
          <mxGeometry relative="1" as="geometry"/>
        </mxCell>
        <mxCell id="U9G6t_5P7GZVKfGeQdNS-78" value="&lt;font face=&quot;Times New Roman&quot; style=&quot;white-space: normal&quot;&gt;&lt;br&gt;&lt;br&gt;Euclidean Distance (Spatial Analyst)&lt;br&gt;&lt;/font&gt;&lt;span style=&quot;font-family: &amp;#34;times new roman&amp;#34; ; color: rgb(34 , 34 , 34) ; text-align: left&quot;&gt;≤&lt;/span&gt;&lt;font style=&quot;font-family: &amp;#34;times new roman&amp;#34;&quot;&gt;&lt;span style=&quot;color: rgb(34 , 34 , 34) ; text-align: left&quot;&gt;&amp;nbsp;80m/110m/130m&lt;/span&gt;&lt;br&gt;&lt;/font&gt;&lt;font face=&quot;Times New Roman&quot; style=&quot;white-space: normal&quot;&gt;&lt;br&gt;&lt;/font&gt;&lt;span style=&quot;color: rgba(0 , 0 , 0 , 0) ; font-family: monospace ; font-size: 0px&quot;&gt;%3CmxGraphModel%3E%3Croot%3E%3CmxCell%20id%3D%220%22%2F%3E%3CmxCell%20id%3D%221%22%20parent%3D%220%22%2F%3E%3CmxCell%20id%3D%222%22%20value%3D%22%26lt%3Bblockquote%26gt%3B%26lt%3Bfont%20face%3D%26quot%3BTimes%20New%20Roman%26quot%3B%26gt%3BSlope%20(Spatial%20Analyst)%20%26amp%3Bgt%3B15%25%26lt%3B%2Ffont%26gt%3B%26lt%3B%2Fblockquote%26gt%3B%22%20style%3D%22shape%3Dhexagon%3Bperimeter%3DhexagonPerimeter2%3BwhiteSpace%3Dwrap%3Bhtml%3D1%3BlabelBackgroundColor%3Dnone%3Balign%3Dcenter%3B%22%20vertex%3D%221%22%20parent%3D%221%22%3E%3CmxGeometry%20x%3D%22362.63%22%20y%3D%22210%22%20width%3D%22120%22%20height%3D%2280%22%20as%3D%22geometry%22%2F%3E%3C%2FmxCell%3E%3C%2Froot%3E%3C%2FmxGraphModel%3E&lt;/span&gt;&lt;font face=&quot;Times New Roman&quot; style=&quot;white-space: normal&quot;&gt;&amp;nbsp;&lt;/font&gt;&lt;span style=&quot;color: rgba(0 , 0 , 0 , 0) ; font-family: monospace ; font-size: 0px&quot;&gt;%3CmxGraphModel%3E%3Croot%3E%3CmxCell%20id%3D%220%22%2F%3E%3CmxCell%20id%3D%221%22%20parent%3D%220%22%2F%3E%3CmxCell%20id%3D%222%22%20value%3D%22%26lt%3Bblockquote%26gt%3B%26lt%3Bfont%20face%3D%26quot%3BTimes%20New%20Roman%26quot%3B%26gt%3BSlope%20(Spatial%20Analyst)%20%26amp%3Bgt%3B15%25%26lt%3B%2Ffont%26gt%3B%26lt%3B%2Fblockquote%26gt%3B%22%20style%3D%22shape%3Dhexagon%3Bperimeter%3DhexagonPerimeter2%3BwhiteSpace%3Dwrap%3Bhtml%3D1%3BlabelBackgroundColor%3Dnone%3Balign%3Dcenter%3B%22%20vertex%3D%221%22%20parent%3D%221%22%3E%3CmxGeometry%20x%3D%22362.63%22%20y%3D%22210%22%20width%3D%22120%22%20height%3D%2280%22%20as%3D%22geometry%22%2F%3E%3C%2FmxCell%3E%3C%2Froot%3E%3C%2FmxGraphModel%3E&lt;/span&gt;" style="shape=hexagon;perimeter=hexagonPerimeter2;whiteSpace=wrap;html=1;labelBackgroundColor=none;fillColor=#f5f5f5;strokeColor=#666666;fontColor=#333333;" parent="WIyWlLk6GJQsqaUBKTNV-1" vertex="1">
          <mxGeometry x="360" y="605" width="120" height="80" as="geometry"/>
        </mxCell>
        <mxCell id="U9G6t_5P7GZVKfGeQdNS-372" value="" style="edgeStyle=orthogonalEdgeStyle;rounded=0;orthogonalLoop=1;jettySize=auto;html=1;" parent="WIyWlLk6GJQsqaUBKTNV-1" source="U9G6t_5P7GZVKfGeQdNS-80" target="U9G6t_5P7GZVKfGeQdNS-82" edge="1">
          <mxGeometry relative="1" as="geometry">
            <Array as="points">
              <mxPoint x="540" y="930"/>
              <mxPoint x="540" y="930"/>
            </Array>
          </mxGeometry>
        </mxCell>
        <mxCell id="U9G6t_5P7GZVKfGeQdNS-80" value="&lt;font face=&quot;Times New Roman&quot;&gt;&lt;br&gt;&lt;/font&gt;&lt;font face=&quot;Times New Roman&quot;&gt;Euclidean Distance&lt;/font&gt;&lt;font face=&quot;Times New Roman&quot;&gt;&lt;br&gt;&lt;/font&gt;&lt;span style=&quot;background-color: rgb(245 , 245 , 245)&quot;&gt;&lt;span style=&quot;color: rgb(34 , 34 , 34) ; font-family: &amp;#34;times new roman&amp;#34; ; text-align: left&quot;&gt;≤&lt;/span&gt;&lt;span style=&quot;color: rgb(34 , 34 , 34) ; font-family: &amp;#34;times new roman&amp;#34; ; text-align: left&quot;&gt;(See Appendix A)&lt;br&gt;&lt;/span&gt;&lt;/span&gt;&lt;span style=&quot;color: rgba(0 , 0 , 0 , 0) ; font-family: monospace ; font-size: 0px&quot;&gt;%3CmxGraphModel%3E%3Croot%3E%3CmxCell%20id%3D%220%22%2F%3E%3CmxCell%20id%3D%221%22%20parent%3D%220%22%2F%3E%3CmxCell%20id%3D%222%22%20value%3D%22%26lt%3Bblockquote%26gt%3B%26lt%3Bfont%20face%3D%26quot%3BTimes%20New%20Roman%26quot%3B%26gt%3BSlope%20(Spatial%20Analyst)%20%26amp%3Bgt%3B15%25%26lt%3B%2Ffont%26gt%3B%26lt%3B%2Fblockquote%26gt%3B%22%20style%3D%22shape%3Dhexagon%3Bperimeter%3DhexagonPerimeter2%3BwhiteSpace%3Dwrap%3Bhtml%3D1%3BlabelBackgroundColor%3Dnone%3Balign%3Dcenter%3B%22%20vertex%3D%221%22%20parent%3D%221%22%3E%3CmxGeometry%20x%3D%22362.63%22%20y%3D%22210%22%20width%3D%22120%22%20height%3D%2280%22%20as%3D%22geometry%22%2F%3E%3C%2FmxCell%3E%3C%2Froot%3E%3C%2FmxGraphModel%3E&lt;/span&gt;&lt;font face=&quot;Times New Roman&quot;&gt;&amp;nbsp;&lt;/font&gt;&lt;span style=&quot;color: rgba(0 , 0 , 0 , 0) ; font-family: monospace ; font-size: 0px&quot;&gt;%3CmxGraphModel%3E%3Croot%3E%3CmxCell%20id%3D%220%22%2F%3E%3CmxCell%20id%3D%221%22%20parent%3D%220%22%2F%3E%3CmxCell%20id%3D%222%22%20value%3D%22%26lt%3Bblockquote%26gt%3B%26lt%3Bfont%20face%3D%26quot%3BTimes%20New%20Roman%26quot%3B%26gt%3BSlope%20(Spatial%20Analyst)%20%26amp%3Bgt%3B15%25%26lt%3B%2Ffont%26gt%3B%26lt%3B%2Fblockquote%26gt%3B%22%20style%3D%22shape%3Dhexagon%3Bperimeter%3DhexagonPerimeter2%3BwhiteSpace%3Dwrap%3Bhtml%3D1%3BlabelBackgroundColor%3Dnone%3Balign%3Dcenter%3B%22%20vertex%3D%221%22%20parent%3D%221%22%3E%3CmxGeometry%20x%3D%22362.63%22%20y%3D%22210%22%20width%3D%22120%22%20height%3D%2280%22%20as%3D%22geometry%22%2F%3E%3C%2FmxCell%3E%3C%2Froot%3E%3C%2FmxGraphModel%3E&lt;/span&gt;&lt;font face=&quot;Times New Roman&quot;&gt;&lt;br&gt;&lt;/font&gt;" style="shape=hexagon;perimeter=hexagonPerimeter2;whiteSpace=wrap;html=1;labelBackgroundColor=none;fillColor=#f5f5f5;strokeColor=#666666;fontColor=#333333;" parent="WIyWlLk6GJQsqaUBKTNV-1" vertex="1">
          <mxGeometry x="290" y="880" width="120" height="80" as="geometry"/>
        </mxCell>
        <mxCell id="U9G6t_5P7GZVKfGeQdNS-379" style="edgeStyle=orthogonalEdgeStyle;rounded=0;orthogonalLoop=1;jettySize=auto;html=1;exitX=1;exitY=0.5;exitDx=0;exitDy=0;entryX=0;entryY=0.5;entryDx=0;entryDy=0;" parent="WIyWlLk6GJQsqaUBKTNV-1" source="U9G6t_5P7GZVKfGeQdNS-81" target="U9G6t_5P7GZVKfGeQdNS-357" edge="1">
          <mxGeometry relative="1" as="geometry"/>
        </mxCell>
        <mxCell id="U9G6t_5P7GZVKfGeQdNS-81" value="&lt;font face=&quot;Times New Roman&quot;&gt;Digitise Locations within Study Area&lt;/font&gt;" style="shape=hexagon;perimeter=hexagonPerimeter2;whiteSpace=wrap;html=1;labelBackgroundColor=none;fillColor=#f5f5f5;strokeColor=#666666;fontColor=#333333;" parent="WIyWlLk6GJQsqaUBKTNV-1" vertex="1">
          <mxGeometry x="290" y="1027.5" width="117.37" height="80" as="geometry"/>
        </mxCell>
        <mxCell id="U9G6t_5P7GZVKfGeQdNS-387" style="edgeStyle=orthogonalEdgeStyle;rounded=0;orthogonalLoop=1;jettySize=auto;html=1;exitX=1;exitY=0.5;exitDx=0;exitDy=0;entryX=0;entryY=0.5;entryDx=0;entryDy=0;" parent="WIyWlLk6GJQsqaUBKTNV-1" source="U9G6t_5P7GZVKfGeQdNS-82" target="U9G6t_5P7GZVKfGeQdNS-2" edge="1">
          <mxGeometry relative="1" as="geometry"/>
        </mxCell>
        <mxCell id="U9G6t_5P7GZVKfGeQdNS-82" value="&lt;span style=&quot;font-family: &amp;#34;times new roman&amp;#34; ; white-space: normal&quot;&gt;Union &amp;amp; Clip to&lt;/span&gt;&lt;br style=&quot;font-family: &amp;#34;times new roman&amp;#34; ; white-space: normal&quot;&gt;&lt;span style=&quot;font-family: &amp;#34;times new roman&amp;#34; ; white-space: normal&quot;&gt;Study Area&lt;/span&gt;" style="shape=hexagon;perimeter=hexagonPerimeter2;whiteSpace=wrap;html=1;labelBackgroundColor=none;fillColor=#f5f5f5;strokeColor=#666666;fontColor=#333333;" parent="WIyWlLk6GJQsqaUBKTNV-1" vertex="1">
          <mxGeometry x="430" y="877.5" width="120" height="80" as="geometry"/>
        </mxCell>
        <mxCell id="U9G6t_5P7GZVKfGeQdNS-389" style="edgeStyle=orthogonalEdgeStyle;rounded=0;orthogonalLoop=1;jettySize=auto;html=1;exitX=1;exitY=0.5;exitDx=0;exitDy=0;entryX=0.13;entryY=0.163;entryDx=0;entryDy=0;entryPerimeter=0;" parent="WIyWlLk6GJQsqaUBKTNV-1" source="U9G6t_5P7GZVKfGeQdNS-84" target="U9G6t_5P7GZVKfGeQdNS-86" edge="1">
          <mxGeometry relative="1" as="geometry"/>
        </mxCell>
        <mxCell id="U9G6t_5P7GZVKfGeQdNS-84" value="&lt;font face=&quot;Times New Roman&quot;&gt;Aviation Sites Unsuitable&lt;/font&gt;" style="rounded=1;whiteSpace=wrap;html=1;fillColor=#dae8fc;strokeColor=#6c8ebf;" parent="WIyWlLk6GJQsqaUBKTNV-1" vertex="1">
          <mxGeometry x="562.63" y="1037.5" width="120" height="60" as="geometry"/>
        </mxCell>
        <mxCell id="U9G6t_5P7GZVKfGeQdNS-294" style="edgeStyle=none;rounded=0;orthogonalLoop=1;jettySize=auto;html=1;entryX=0.5;entryY=0;entryDx=0;entryDy=0;exitX=0;exitY=0.5;exitDx=0;exitDy=0;" parent="WIyWlLk6GJQsqaUBKTNV-1" source="U9G6t_5P7GZVKfGeQdNS-86" target="U9G6t_5P7GZVKfGeQdNS-132" edge="1">
          <mxGeometry relative="1" as="geometry">
            <mxPoint x="743" y="1170" as="sourcePoint"/>
          </mxGeometry>
        </mxCell>
        <mxCell id="U9G6t_5P7GZVKfGeQdNS-301" style="edgeStyle=orthogonalEdgeStyle;rounded=0;orthogonalLoop=1;jettySize=auto;html=1;exitX=1;exitY=0;exitDx=0;exitDy=0;entryX=1;entryY=0;entryDx=0;entryDy=0;" parent="WIyWlLk6GJQsqaUBKTNV-1" source="U9G6t_5P7GZVKfGeQdNS-86" target="U9G6t_5P7GZVKfGeQdNS-86" edge="1">
          <mxGeometry relative="1" as="geometry">
            <mxPoint x="800" y="1056" as="targetPoint"/>
          </mxGeometry>
        </mxCell>
        <mxCell id="U9G6t_5P7GZVKfGeQdNS-86" value="&lt;p&gt;&lt;font face=&quot;Times New Roman&quot; style=&quot;font-size: 24px&quot;&gt;Union with geographically suitable area&lt;/font&gt;&lt;/p&gt;" style="ellipse;html=1;labelBackgroundColor=none;rotation=-90;direction=east;flipH=0;flipV=0;align=center;labelBorderColor=none;verticalAlign=middle;horizontal=1;fillColor=#d5e8d4;strokeColor=#82b366;" parent="WIyWlLk6GJQsqaUBKTNV-1" vertex="1">
          <mxGeometry x="405.13" y="777.5" width="675" height="80" as="geometry"/>
        </mxCell>
        <mxCell id="U9G6t_5P7GZVKfGeQdNS-413" style="edgeStyle=orthogonalEdgeStyle;rounded=0;orthogonalLoop=1;jettySize=auto;html=1;exitX=0;exitY=0.5;exitDx=0;exitDy=0;entryX=0.586;entryY=0.982;entryDx=0;entryDy=0;entryPerimeter=0;" parent="WIyWlLk6GJQsqaUBKTNV-1" source="U9G6t_5P7GZVKfGeQdNS-89" target="U9G6t_5P7GZVKfGeQdNS-86" edge="1">
          <mxGeometry relative="1" as="geometry"/>
        </mxCell>
        <mxCell id="U9G6t_5P7GZVKfGeQdNS-89" value="&lt;font face=&quot;Times New Roman&quot;&gt;Water Bodies Unsuitable&lt;/font&gt;" style="rounded=1;whiteSpace=wrap;html=1;flipH=0;flipV=0;direction=east;fillColor=#dae8fc;strokeColor=#6c8ebf;" parent="WIyWlLk6GJQsqaUBKTNV-1" vertex="1">
          <mxGeometry x="800" y="729.38" width="120" height="60" as="geometry"/>
        </mxCell>
        <mxCell id="U9G6t_5P7GZVKfGeQdNS-263" style="edgeStyle=none;rounded=0;orthogonalLoop=1;jettySize=auto;html=1;exitX=0;exitY=0.5;exitDx=0;exitDy=0;entryX=0.933;entryY=0.763;entryDx=0;entryDy=0;entryPerimeter=0;" parent="WIyWlLk6GJQsqaUBKTNV-1" source="U9G6t_5P7GZVKfGeQdNS-90" target="U9G6t_5P7GZVKfGeQdNS-86" edge="1">
          <mxGeometry relative="1" as="geometry">
            <mxPoint x="780" y="525" as="targetPoint"/>
          </mxGeometry>
        </mxCell>
        <mxCell id="U9G6t_5P7GZVKfGeQdNS-90" value="&lt;font face=&quot;Times New Roman&quot;&gt;Ecological Sites Unsuitable&lt;/font&gt;" style="rounded=1;whiteSpace=wrap;html=1;flipH=0;flipV=0;direction=east;fillColor=#dae8fc;strokeColor=#6c8ebf;" parent="WIyWlLk6GJQsqaUBKTNV-1" vertex="1">
          <mxGeometry x="800" y="495" width="120" height="60" as="geometry"/>
        </mxCell>
        <mxCell id="U9G6t_5P7GZVKfGeQdNS-265" style="edgeStyle=none;rounded=0;orthogonalLoop=1;jettySize=auto;html=1;" parent="WIyWlLk6GJQsqaUBKTNV-1" source="U9G6t_5P7GZVKfGeQdNS-347" target="U9G6t_5P7GZVKfGeQdNS-90" edge="1">
          <mxGeometry relative="1" as="geometry"/>
        </mxCell>
        <mxCell id="U9G6t_5P7GZVKfGeQdNS-348" style="edgeStyle=none;rounded=0;orthogonalLoop=1;jettySize=auto;html=1;exitX=0;exitY=0.5;exitDx=0;exitDy=0;entryX=1;entryY=0.5;entryDx=0;entryDy=0;" parent="WIyWlLk6GJQsqaUBKTNV-1" source="U9G6t_5P7GZVKfGeQdNS-91" target="U9G6t_5P7GZVKfGeQdNS-347" edge="1">
          <mxGeometry relative="1" as="geometry"/>
        </mxCell>
        <mxCell id="U9G6t_5P7GZVKfGeQdNS-91" value="&lt;font face=&quot;Times New Roman&quot;&gt;Euclidean Distance (Spatial Analyst)&lt;br&gt;&lt;/font&gt;&lt;font face=&quot;Times New Roman&quot; style=&quot;background-color: rgb(245 , 245 , 245)&quot;&gt;&lt;span style=&quot;color: rgb(34 , 34 , 34) ; text-align: left&quot;&gt;≤&lt;/span&gt;&lt;span style=&quot;color: rgb(34 , 34 , 34) ; text-align: left&quot;&gt;&amp;nbsp;2000m&lt;/span&gt;&lt;/font&gt;&lt;font face=&quot;Times New Roman&quot;&gt;&lt;br&gt;&lt;/font&gt;" style="shape=hexagon;perimeter=hexagonPerimeter2;whiteSpace=wrap;html=1;labelBackgroundColor=none;flipH=0;flipV=0;direction=east;fillColor=#f5f5f5;strokeColor=#666666;fontColor=#333333;" parent="WIyWlLk6GJQsqaUBKTNV-1" vertex="1">
          <mxGeometry x="1060" y="485" width="120" height="80" as="geometry"/>
        </mxCell>
        <mxCell id="U9G6t_5P7GZVKfGeQdNS-257" style="edgeStyle=orthogonalEdgeStyle;rounded=0;orthogonalLoop=1;jettySize=auto;html=1;exitX=0;exitY=0.5;exitDx=0;exitDy=0;entryX=1;entryY=0.5;entryDx=0;entryDy=0;" parent="WIyWlLk6GJQsqaUBKTNV-1" source="U9G6t_5P7GZVKfGeQdNS-111" target="U9G6t_5P7GZVKfGeQdNS-91" edge="1">
          <mxGeometry relative="1" as="geometry"/>
        </mxCell>
        <mxCell id="U9G6t_5P7GZVKfGeQdNS-111" value="&lt;font face=&quot;Times New Roman&quot;&gt;RAMSAR&lt;/font&gt;" style="rounded=1;whiteSpace=wrap;html=1;fillColor=#fff2cc;strokeColor=#d6b656;" parent="WIyWlLk6GJQsqaUBKTNV-1" vertex="1">
          <mxGeometry x="1220" y="603.75" width="120" height="60" as="geometry"/>
        </mxCell>
        <mxCell id="U9G6t_5P7GZVKfGeQdNS-255" style="edgeStyle=orthogonalEdgeStyle;rounded=0;orthogonalLoop=1;jettySize=auto;html=1;exitX=0;exitY=0.5;exitDx=0;exitDy=0;entryX=1;entryY=0.5;entryDx=0;entryDy=0;" parent="WIyWlLk6GJQsqaUBKTNV-1" source="U9G6t_5P7GZVKfGeQdNS-112" target="U9G6t_5P7GZVKfGeQdNS-91" edge="1">
          <mxGeometry relative="1" as="geometry"/>
        </mxCell>
        <mxCell id="U9G6t_5P7GZVKfGeQdNS-112" value="&lt;font face=&quot;Times New Roman&quot;&gt;LNR&lt;/font&gt;" style="rounded=1;whiteSpace=wrap;html=1;fillColor=#fff2cc;strokeColor=#d6b656;" parent="WIyWlLk6GJQsqaUBKTNV-1" vertex="1">
          <mxGeometry x="1220" y="531.88" width="120" height="60" as="geometry"/>
        </mxCell>
        <mxCell id="U9G6t_5P7GZVKfGeQdNS-254" style="edgeStyle=orthogonalEdgeStyle;rounded=0;orthogonalLoop=1;jettySize=auto;html=1;exitX=0;exitY=0.5;exitDx=0;exitDy=0;entryX=1;entryY=0.5;entryDx=0;entryDy=0;" parent="WIyWlLk6GJQsqaUBKTNV-1" source="U9G6t_5P7GZVKfGeQdNS-113" target="U9G6t_5P7GZVKfGeQdNS-91" edge="1">
          <mxGeometry relative="1" as="geometry"/>
        </mxCell>
        <mxCell id="U9G6t_5P7GZVKfGeQdNS-113" value="&lt;font face=&quot;Times New Roman&quot;&gt;SAC&lt;/font&gt;" style="rounded=1;whiteSpace=wrap;html=1;fillColor=#fff2cc;strokeColor=#d6b656;" parent="WIyWlLk6GJQsqaUBKTNV-1" vertex="1">
          <mxGeometry x="1220" y="458.75" width="120" height="60" as="geometry"/>
        </mxCell>
        <mxCell id="U9G6t_5P7GZVKfGeQdNS-253" style="edgeStyle=orthogonalEdgeStyle;rounded=0;orthogonalLoop=1;jettySize=auto;html=1;exitX=0;exitY=0.5;exitDx=0;exitDy=0;entryX=1;entryY=0.5;entryDx=0;entryDy=0;" parent="WIyWlLk6GJQsqaUBKTNV-1" source="U9G6t_5P7GZVKfGeQdNS-114" target="U9G6t_5P7GZVKfGeQdNS-91" edge="1">
          <mxGeometry relative="1" as="geometry"/>
        </mxCell>
        <mxCell id="U9G6t_5P7GZVKfGeQdNS-114" value="&lt;font face=&quot;Times New Roman&quot;&gt;SSSI&lt;/font&gt;" style="rounded=1;whiteSpace=wrap;html=1;fillColor=#fff2cc;strokeColor=#d6b656;" parent="WIyWlLk6GJQsqaUBKTNV-1" vertex="1">
          <mxGeometry x="1220" y="380" width="120" height="60" as="geometry"/>
        </mxCell>
        <mxCell id="U9G6t_5P7GZVKfGeQdNS-252" style="edgeStyle=orthogonalEdgeStyle;rounded=0;orthogonalLoop=1;jettySize=auto;html=1;exitX=0;exitY=0.5;exitDx=0;exitDy=0;entryX=1;entryY=0.5;entryDx=0;entryDy=0;" parent="WIyWlLk6GJQsqaUBKTNV-1" source="U9G6t_5P7GZVKfGeQdNS-115" target="U9G6t_5P7GZVKfGeQdNS-122" edge="1">
          <mxGeometry relative="1" as="geometry"/>
        </mxCell>
        <mxCell id="U9G6t_5P7GZVKfGeQdNS-115" value="&lt;font face=&quot;Times New Roman&quot;&gt;Rivers&lt;/font&gt;" style="rounded=1;whiteSpace=wrap;html=1;fillColor=#fff2cc;strokeColor=#d6b656;" parent="WIyWlLk6GJQsqaUBKTNV-1" vertex="1">
          <mxGeometry x="1220" y="770" width="120" height="60" as="geometry"/>
        </mxCell>
        <mxCell id="U9G6t_5P7GZVKfGeQdNS-251" style="edgeStyle=orthogonalEdgeStyle;rounded=0;orthogonalLoop=1;jettySize=auto;html=1;exitX=0;exitY=0.5;exitDx=0;exitDy=0;entryX=1;entryY=0.5;entryDx=0;entryDy=0;" parent="WIyWlLk6GJQsqaUBKTNV-1" source="U9G6t_5P7GZVKfGeQdNS-116" target="U9G6t_5P7GZVKfGeQdNS-122" edge="1">
          <mxGeometry relative="1" as="geometry"/>
        </mxCell>
        <mxCell id="U9G6t_5P7GZVKfGeQdNS-116" value="&lt;font face=&quot;Times New Roman&quot;&gt;Lakes&lt;/font&gt;" style="rounded=1;whiteSpace=wrap;html=1;fillColor=#fff2cc;strokeColor=#d6b656;" parent="WIyWlLk6GJQsqaUBKTNV-1" vertex="1">
          <mxGeometry x="1220" y="690" width="120" height="60" as="geometry"/>
        </mxCell>
        <mxCell id="U9G6t_5P7GZVKfGeQdNS-266" value="" style="edgeStyle=none;rounded=0;orthogonalLoop=1;jettySize=auto;html=1;" parent="WIyWlLk6GJQsqaUBKTNV-1" source="U9G6t_5P7GZVKfGeQdNS-122" target="U9G6t_5P7GZVKfGeQdNS-89" edge="1">
          <mxGeometry relative="1" as="geometry"/>
        </mxCell>
        <mxCell id="U9G6t_5P7GZVKfGeQdNS-350" style="edgeStyle=none;rounded=0;orthogonalLoop=1;jettySize=auto;html=1;exitX=0;exitY=0.5;exitDx=0;exitDy=0;" parent="WIyWlLk6GJQsqaUBKTNV-1" source="U9G6t_5P7GZVKfGeQdNS-122" edge="1">
          <mxGeometry relative="1" as="geometry">
            <mxPoint x="1090" y="759.5714285714286" as="targetPoint"/>
          </mxGeometry>
        </mxCell>
        <mxCell id="U9G6t_5P7GZVKfGeQdNS-414" style="edgeStyle=orthogonalEdgeStyle;rounded=0;orthogonalLoop=1;jettySize=auto;html=1;exitX=0;exitY=0.5;exitDx=0;exitDy=0;" parent="WIyWlLk6GJQsqaUBKTNV-1" source="U9G6t_5P7GZVKfGeQdNS-122" edge="1">
          <mxGeometry relative="1" as="geometry">
            <mxPoint x="1049.689655172414" y="759.1379310344828" as="targetPoint"/>
          </mxGeometry>
        </mxCell>
        <mxCell id="U9G6t_5P7GZVKfGeQdNS-122" value="&lt;font face=&quot;Times New Roman&quot;&gt;&lt;br&gt;Euclidean Distance (Spatial Analyst)&lt;br&gt;&lt;/font&gt;&lt;font face=&quot;Times New Roman&quot; style=&quot;background-color: rgb(245 , 245 , 245)&quot;&gt;&lt;span style=&quot;color: rgb(34 , 34 , 34) ; text-align: left&quot;&gt;≤&lt;/span&gt;&lt;span style=&quot;color: rgb(34 , 34 , 34) ; text-align: left&quot;&gt;&amp;nbsp;1000m&lt;/span&gt;&lt;br&gt;&lt;/font&gt;&lt;span style=&quot;color: rgba(0 , 0 , 0 , 0) ; font-family: monospace ; font-size: 0px&quot;&gt;%3CmxGraphModel%3E%3Croot%3E%3CmxCell%20id%3D%220%22%2F%3E%3CmxCell%20id%3D%221%22%20parent%3D%220%22%2F%3E%3CmxCell%20id%3D%222%22%20value%3D%22%26lt%3Bblockquote%26gt%3B%26lt%3Bfont%20face%3D%26quot%3BTimes%20New%20Roman%26quot%3B%26gt%3BSlope%20(Spatial%20Analyst)%20%26amp%3Bgt%3B15%25%26lt%3B%2Ffont%26gt%3B%26lt%3B%2Fblockquote%26gt%3B%22%20style%3D%22shape%3Dhexagon%3Bperimeter%3DhexagonPerimeter2%3BwhiteSpace%3Dwrap%3Bhtml%3D1%3BlabelBackgroundColor%3Dnone%3Balign%3Dcenter%3B%22%20vertex%3D%221%22%20parent%3D%221%22%3E%3CmxGeometry%20x%3D%22362.63%22%20y%3D%22210%22%20width%3D%22120%22%20height%3D%2280%22%20as%3D%22geometry%22%2F%3E%3C%2FmxCell%3E%3C%2Froot%3E%3C%2FmxGraphModel%3E&lt;/span&gt;&lt;font face=&quot;Times New Roman&quot;&gt;&amp;nbsp;&lt;/font&gt;&lt;span style=&quot;color: rgba(0 , 0 , 0 , 0) ; font-family: monospace ; font-size: 0px&quot;&gt;%3CmxGraphModel%3E%3Croot%3E%3CmxCell%20id%3D%220%22%2F%3E%3CmxCell%20id%3D%221%22%20parent%3D%220%22%2F%3E%3CmxCell%20id%3D%222%22%20value%3D%22%26lt%3Bblockquote%26gt%3B%26lt%3Bfont%20face%3D%26quot%3BTimes%20New%20Roman%26quot%3B%26gt%3BSlope%20(Spatial%20Analyst)%20%26amp%3Bgt%3B15%25%26lt%3B%2Ffont%26gt%3B%26lt%3B%2Fblockquote%26gt%3B%22%20style%3D%22shape%3Dhexagon%3Bperimeter%3DhexagonPerimeter2%3BwhiteSpace%3Dwrap%3Bhtml%3D1%3BlabelBackgroundColor%3Dnone%3Balign%3Dcenter%3B%22%20vertex%3D%221%22%20parent%3D%221%22%3E%3CmxGeometry%20x%3D%22362.63%22%20y%3D%22210%22%20width%3D%22120%22%20height%3D%2280%22%20as%3D%22geometry%22%2F%3E%3C%2FmxCell%3E%3C%2Froot%3E%3C%2FmxGraphModel%3E&lt;/span&gt;&lt;font face=&quot;Times New Roman&quot;&gt;&lt;br&gt;&lt;/font&gt;" style="shape=hexagon;perimeter=hexagonPerimeter2;whiteSpace=wrap;html=1;labelBackgroundColor=none;flipH=0;flipV=0;direction=east;fillColor=#f5f5f5;strokeColor=#666666;fontColor=#333333;" parent="WIyWlLk6GJQsqaUBKTNV-1" vertex="1">
          <mxGeometry x="1060" y="719.38" width="120" height="80" as="geometry"/>
        </mxCell>
        <mxCell id="U9G6t_5P7GZVKfGeQdNS-354" style="edgeStyle=none;rounded=0;orthogonalLoop=1;jettySize=auto;html=1;exitX=0;exitY=0.5;exitDx=0;exitDy=0;entryX=1;entryY=0.5;entryDx=0;entryDy=0;" parent="WIyWlLk6GJQsqaUBKTNV-1" source="U9G6t_5P7GZVKfGeQdNS-128" target="U9G6t_5P7GZVKfGeQdNS-351" edge="1">
          <mxGeometry relative="1" as="geometry"/>
        </mxCell>
        <mxCell id="U9G6t_5P7GZVKfGeQdNS-128" value="&lt;font style=&quot;font-size: 12px&quot;&gt;&lt;font face=&quot;Times New Roman&quot;&gt;Euclidean Distance&amp;nbsp;&lt;br&gt;(Spatial Analyst)&lt;br&gt;&lt;/font&gt;&lt;font face=&quot;Times New Roman&quot; style=&quot;background-color: rgb(245 , 245 , 245)&quot;&gt;&lt;span style=&quot;color: rgb(34 , 34 , 34) ; text-align: left&quot;&gt;≤&lt;/span&gt;&lt;span style=&quot;color: rgb(34 , 34 , 34) ; text-align: left&quot;&gt;&amp;nbsp;2000m&lt;/span&gt;&lt;/font&gt;&lt;/font&gt;&lt;font face=&quot;Times New Roman&quot;&gt;&lt;br&gt;&lt;/font&gt;" style="shape=hexagon;perimeter=hexagonPerimeter2;whiteSpace=wrap;html=1;labelBackgroundColor=none;flipH=0;flipV=0;direction=east;fillColor=#f5f5f5;strokeColor=#666666;fontColor=#333333;" parent="WIyWlLk6GJQsqaUBKTNV-1" vertex="1">
          <mxGeometry x="1060" y="958.75" width="120" height="80" as="geometry"/>
        </mxCell>
        <mxCell id="U9G6t_5P7GZVKfGeQdNS-384" style="edgeStyle=orthogonalEdgeStyle;rounded=0;orthogonalLoop=1;jettySize=auto;html=1;exitX=0.5;exitY=0;exitDx=0;exitDy=0;entryX=0.5;entryY=1;entryDx=0;entryDy=0;" parent="WIyWlLk6GJQsqaUBKTNV-1" source="U9G6t_5P7GZVKfGeQdNS-129" target="U9G6t_5P7GZVKfGeQdNS-351" edge="1">
          <mxGeometry relative="1" as="geometry"/>
        </mxCell>
        <mxCell id="U9G6t_5P7GZVKfGeQdNS-129" value="&lt;font face=&quot;Times New Roman&quot; style=&quot;white-space: normal&quot;&gt;&lt;br&gt;Euclidean Distance (Spatial Analyst)&lt;br&gt;&lt;/font&gt;&lt;font face=&quot;Times New Roman&quot; style=&quot;white-space: normal ; background-color: rgb(245 , 245 , 245)&quot;&gt;&lt;span style=&quot;color: rgb(34 , 34 , 34) ; text-align: left&quot;&gt;≤&lt;/span&gt;&lt;span style=&quot;color: rgb(34 , 34 , 34) ; text-align: left&quot;&gt;&amp;nbsp;50m&lt;/span&gt;&lt;br&gt;&lt;/font&gt;&lt;span style=&quot;color: rgba(0 , 0 , 0 , 0) ; font-family: monospace ; font-size: 0px&quot;&gt;%3CmxGraphModel%3E%3Croot%3E%3CmxCell%20id%3D%220%22%2F%3E%3CmxCell%20id%3D%221%22%20parent%3D%220%22%2F%3E%3CmxCell%20id%3D%222%22%20value%3D%22%26lt%3Bblockquote%26gt%3B%26lt%3Bfont%20face%3D%26quot%3BTimes%20New%20Roman%26quot%3B%26gt%3BSlope%20(Spatial%20Analyst)%20%26amp%3Bgt%3B15%25%26lt%3B%2Ffont%26gt%3B%26lt%3B%2Fblockquote%26gt%3B%22%20style%3D%22shape%3Dhexagon%3Bperimeter%3DhexagonPerimeter2%3BwhiteSpace%3Dwrap%3Bhtml%3D1%3BlabelBackgroundColor%3Dnone%3Balign%3Dcenter%3B%22%20vertex%3D%221%22%20parent%3D%221%22%3E%3CmxGeometry%20x%3D%22362.63%22%20y%3D%22210%22%20width%3D%22120%22%20height%3D%2280%22%20as%3D%22geometry%22%2F%3E%3C%2FmxCell%3E%3C%2Froot%3E%3C%2FmxGraphModel%3E&lt;/span&gt;&lt;font face=&quot;Times New Roman&quot; style=&quot;white-space: normal&quot;&gt;&amp;nbsp;&lt;/font&gt;&lt;span style=&quot;color: rgba(0 , 0 , 0 , 0) ; font-family: monospace ; font-size: 0px&quot;&gt;%3CmxGraphModel%3E%3Croot%3E%3CmxCell%20id%3D%220%22%2F%3E%3CmxCell%20id%3D%221%22%20parent%3D%220%22%2F%3E%3CmxCell%20id%3D%222%22%20value%3D%22%26lt%3Bblockquote%26gt%3B%26lt%3Bfont%20face%3D%26quot%3BTimes%20New%20Roman%26quot%3B%26gt%3BSlope%20(Spatial%20Analyst)%20%26amp%3Bgt%3B15%25%26lt%3B%2Ffont%26gt%3B%26lt%3B%2Fblockquote%26gt%3B%22%20style%3D%22shape%3Dhexagon%3Bperimeter%3DhexagonPerimeter2%3BwhiteSpace%3Dwrap%3Bhtml%3D1%3BlabelBackgroundColor%3Dnone%3Balign%3Dcenter%3B%22%20vertex%3D%221%22%20parent%3D%221%22%3E%3CmxGeometry%20x%3D%22362.63%22%20y%3D%22210%22%20width%3D%22120%22%20height%3D%2280%22%20as%3D%22geometry%22%2F%3E%3C%2FmxCell%3E%3C%2Froot%3E%3C%2FmxGraphModel%3E&lt;/span&gt;" style="shape=hexagon;perimeter=hexagonPerimeter2;whiteSpace=wrap;html=1;labelBackgroundColor=none;flipH=0;flipV=0;direction=east;fillColor=#f5f5f5;strokeColor=#666666;fontColor=#333333;" parent="WIyWlLk6GJQsqaUBKTNV-1" vertex="1">
          <mxGeometry x="930" y="1143.75" width="120" height="80" as="geometry"/>
        </mxCell>
        <mxCell id="U9G6t_5P7GZVKfGeQdNS-298" style="edgeStyle=none;rounded=0;orthogonalLoop=1;jettySize=auto;html=1;entryX=0.232;entryY=0.938;entryDx=0;entryDy=0;entryPerimeter=0;" parent="WIyWlLk6GJQsqaUBKTNV-1" source="U9G6t_5P7GZVKfGeQdNS-130" target="U9G6t_5P7GZVKfGeQdNS-86" edge="1">
          <mxGeometry relative="1" as="geometry">
            <mxPoint x="790" y="998" as="targetPoint"/>
          </mxGeometry>
        </mxCell>
        <mxCell id="U9G6t_5P7GZVKfGeQdNS-130" value="&lt;font face=&quot;Times New Roman&quot;&gt;Landscape Sites Unsuitable&lt;/font&gt;" style="rounded=1;whiteSpace=wrap;html=1;flipH=0;flipV=0;direction=east;fillColor=#dae8fc;strokeColor=#6c8ebf;" parent="WIyWlLk6GJQsqaUBKTNV-1" vertex="1">
          <mxGeometry x="800" y="967.5" width="120" height="60" as="geometry"/>
        </mxCell>
        <mxCell id="U9G6t_5P7GZVKfGeQdNS-312" style="edgeStyle=orthogonalEdgeStyle;rounded=0;orthogonalLoop=1;jettySize=auto;html=1;entryX=0;entryY=0.5;entryDx=0;entryDy=0;exitX=0.5;exitY=1;exitDx=0;exitDy=0;" parent="WIyWlLk6GJQsqaUBKTNV-1" source="U9G6t_5P7GZVKfGeQdNS-132" target="U9G6t_5P7GZVKfGeQdNS-416" edge="1">
          <mxGeometry relative="1" as="geometry">
            <mxPoint x="890" y="1766" as="targetPoint"/>
            <Array as="points">
              <mxPoint x="743" y="1360"/>
              <mxPoint x="840" y="1360"/>
              <mxPoint x="840" y="1766"/>
            </Array>
            <mxPoint x="742" y="1350" as="sourcePoint"/>
          </mxGeometry>
        </mxCell>
        <mxCell id="U9G6t_5P7GZVKfGeQdNS-132" value="&lt;font face=&quot;Times New Roman&quot;&gt;Geographically &amp;amp; Environmentally Suitable Area&lt;/font&gt;" style="rounded=0;whiteSpace=wrap;html=1;labelBackgroundColor=none;fillColor=#e1d5e7;strokeColor=#9673a6;" parent="WIyWlLk6GJQsqaUBKTNV-1" vertex="1">
          <mxGeometry x="682.63" y="1223.75" width="120" height="60" as="geometry"/>
        </mxCell>
        <mxCell id="U9G6t_5P7GZVKfGeQdNS-270" value="" style="edgeStyle=none;rounded=0;orthogonalLoop=1;jettySize=auto;html=1;" parent="WIyWlLk6GJQsqaUBKTNV-1" source="U9G6t_5P7GZVKfGeQdNS-133" target="U9G6t_5P7GZVKfGeQdNS-140" edge="1">
          <mxGeometry relative="1" as="geometry"/>
        </mxCell>
        <mxCell id="U9G6t_5P7GZVKfGeQdNS-133" value="&lt;font face=&quot;Times New Roman&quot;&gt;Grid Access Points&lt;/font&gt;" style="rounded=1;whiteSpace=wrap;html=1;fillColor=#dae8fc;strokeColor=#6c8ebf;" parent="WIyWlLk6GJQsqaUBKTNV-1" vertex="1">
          <mxGeometry x="182.05999999999997" y="1370" width="120" height="60" as="geometry"/>
        </mxCell>
        <mxCell id="U9G6t_5P7GZVKfGeQdNS-271" value="" style="edgeStyle=none;rounded=0;orthogonalLoop=1;jettySize=auto;html=1;" parent="WIyWlLk6GJQsqaUBKTNV-1" source="U9G6t_5P7GZVKfGeQdNS-134" target="U9G6t_5P7GZVKfGeQdNS-142" edge="1">
          <mxGeometry relative="1" as="geometry"/>
        </mxCell>
        <mxCell id="U9G6t_5P7GZVKfGeQdNS-134" value="&lt;font face=&quot;Times New Roman&quot;&gt;Access Roads&lt;/font&gt;" style="rounded=1;whiteSpace=wrap;html=1;fillColor=#dae8fc;strokeColor=#6c8ebf;" parent="WIyWlLk6GJQsqaUBKTNV-1" vertex="1">
          <mxGeometry x="182.05999999999997" y="1460" width="120" height="60" as="geometry"/>
        </mxCell>
        <mxCell id="U9G6t_5P7GZVKfGeQdNS-272" value="" style="edgeStyle=none;rounded=0;orthogonalLoop=1;jettySize=auto;html=1;" parent="WIyWlLk6GJQsqaUBKTNV-1" source="U9G6t_5P7GZVKfGeQdNS-135" target="U9G6t_5P7GZVKfGeQdNS-141" edge="1">
          <mxGeometry relative="1" as="geometry"/>
        </mxCell>
        <mxCell id="U9G6t_5P7GZVKfGeQdNS-135" value="&lt;font face=&quot;Times New Roman&quot;&gt;Wind Speed&lt;/font&gt;" style="rounded=1;whiteSpace=wrap;html=1;fillColor=#dae8fc;strokeColor=#6c8ebf;" parent="WIyWlLk6GJQsqaUBKTNV-1" vertex="1">
          <mxGeometry x="182.57999999999998" y="1550" width="120" height="60" as="geometry"/>
        </mxCell>
        <mxCell id="U9G6t_5P7GZVKfGeQdNS-136" value="&lt;font face=&quot;Times New Roman&quot; style=&quot;font-size: 20px&quot;&gt;Economic Viability Factors&lt;/font&gt;" style="rounded=0;whiteSpace=wrap;html=1;rotation=-90;textDirection=rtl;verticalAlign=middle;horizontal=1;labelBackgroundColor=none;fillColor=#1ba1e2;strokeColor=#006EAF;fontColor=#000000;" parent="WIyWlLk6GJQsqaUBKTNV-1" vertex="1">
          <mxGeometry x="-171.64000000000001" y="1655" width="634.22" height="30" as="geometry"/>
        </mxCell>
        <mxCell id="U9G6t_5P7GZVKfGeQdNS-433" style="edgeStyle=orthogonalEdgeStyle;rounded=0;orthogonalLoop=1;jettySize=auto;html=1;exitX=1;exitY=0.5;exitDx=0;exitDy=0;" parent="WIyWlLk6GJQsqaUBKTNV-1" source="U9G6t_5P7GZVKfGeQdNS-137" target="U9G6t_5P7GZVKfGeQdNS-161" edge="1">
          <mxGeometry relative="1" as="geometry"/>
        </mxCell>
        <mxCell id="U9G6t_5P7GZVKfGeQdNS-137" value="&lt;font face=&quot;Times New Roman&quot;&gt;Classified based on wind class&lt;/font&gt;" style="rounded=1;whiteSpace=wrap;html=1;fillColor=#f8cecc;strokeColor=#b85450;" parent="WIyWlLk6GJQsqaUBKTNV-1" vertex="1">
          <mxGeometry x="502.58" y="1550" width="120" height="60" as="geometry"/>
        </mxCell>
        <mxCell id="U9G6t_5P7GZVKfGeQdNS-432" style="edgeStyle=orthogonalEdgeStyle;rounded=0;orthogonalLoop=1;jettySize=auto;html=1;exitX=1;exitY=0.5;exitDx=0;exitDy=0;entryX=0.5;entryY=0;entryDx=0;entryDy=0;" parent="WIyWlLk6GJQsqaUBKTNV-1" source="U9G6t_5P7GZVKfGeQdNS-138" target="U9G6t_5P7GZVKfGeQdNS-161" edge="1">
          <mxGeometry relative="1" as="geometry"/>
        </mxCell>
        <mxCell id="U9G6t_5P7GZVKfGeQdNS-138" value="&lt;font face=&quot;Times New Roman&quot;&gt;Classified based distance from road access&lt;/font&gt;" style="rounded=1;whiteSpace=wrap;html=1;fillColor=#f8cecc;strokeColor=#b85450;" parent="WIyWlLk6GJQsqaUBKTNV-1" vertex="1">
          <mxGeometry x="502.58" y="1460" width="120" height="60" as="geometry"/>
        </mxCell>
        <mxCell id="U9G6t_5P7GZVKfGeQdNS-430" style="edgeStyle=orthogonalEdgeStyle;rounded=0;orthogonalLoop=1;jettySize=auto;html=1;exitX=1;exitY=0.5;exitDx=0;exitDy=0;entryX=0.5;entryY=0;entryDx=0;entryDy=0;" parent="WIyWlLk6GJQsqaUBKTNV-1" source="U9G6t_5P7GZVKfGeQdNS-139" target="U9G6t_5P7GZVKfGeQdNS-161" edge="1">
          <mxGeometry relative="1" as="geometry"/>
        </mxCell>
        <mxCell id="U9G6t_5P7GZVKfGeQdNS-139" value="&lt;font face=&quot;Times New Roman&quot;&gt;Classified based distance from grid access&lt;/font&gt;" style="rounded=1;whiteSpace=wrap;html=1;fillColor=#f8cecc;strokeColor=#b85450;" parent="WIyWlLk6GJQsqaUBKTNV-1" vertex="1">
          <mxGeometry x="502.58" y="1370" width="120" height="60" as="geometry"/>
        </mxCell>
        <mxCell id="U9G6t_5P7GZVKfGeQdNS-285" value="" style="edgeStyle=none;rounded=0;orthogonalLoop=1;jettySize=auto;html=1;" parent="WIyWlLk6GJQsqaUBKTNV-1" source="U9G6t_5P7GZVKfGeQdNS-140" target="U9G6t_5P7GZVKfGeQdNS-139" edge="1">
          <mxGeometry relative="1" as="geometry"/>
        </mxCell>
        <mxCell id="U9G6t_5P7GZVKfGeQdNS-140" value="&lt;font face=&quot;Times New Roman&quot;&gt;Reclassify&lt;/font&gt;" style="shape=hexagon;perimeter=hexagonPerimeter2;whiteSpace=wrap;html=1;labelBackgroundColor=none;fillColor=#f5f5f5;strokeColor=#666666;fontColor=#333333;" parent="WIyWlLk6GJQsqaUBKTNV-1" vertex="1">
          <mxGeometry x="342.58" y="1360" width="120" height="80" as="geometry"/>
        </mxCell>
        <mxCell id="U9G6t_5P7GZVKfGeQdNS-283" value="" style="edgeStyle=none;rounded=0;orthogonalLoop=1;jettySize=auto;html=1;" parent="WIyWlLk6GJQsqaUBKTNV-1" source="U9G6t_5P7GZVKfGeQdNS-141" target="U9G6t_5P7GZVKfGeQdNS-137" edge="1">
          <mxGeometry relative="1" as="geometry"/>
        </mxCell>
        <mxCell id="U9G6t_5P7GZVKfGeQdNS-141" value="&lt;font face=&quot;Times New Roman&quot;&gt;Reclassify&lt;/font&gt;" style="shape=hexagon;perimeter=hexagonPerimeter2;whiteSpace=wrap;html=1;labelBackgroundColor=none;fillColor=#f5f5f5;strokeColor=#666666;fontColor=#333333;" parent="WIyWlLk6GJQsqaUBKTNV-1" vertex="1">
          <mxGeometry x="342.58" y="1540" width="120" height="80" as="geometry"/>
        </mxCell>
        <mxCell id="U9G6t_5P7GZVKfGeQdNS-284" value="" style="edgeStyle=none;rounded=0;orthogonalLoop=1;jettySize=auto;html=1;" parent="WIyWlLk6GJQsqaUBKTNV-1" source="U9G6t_5P7GZVKfGeQdNS-142" target="U9G6t_5P7GZVKfGeQdNS-138" edge="1">
          <mxGeometry relative="1" as="geometry"/>
        </mxCell>
        <mxCell id="U9G6t_5P7GZVKfGeQdNS-142" value="&lt;font face=&quot;Times New Roman&quot;&gt;Reclassify&lt;/font&gt;" style="shape=hexagon;perimeter=hexagonPerimeter2;whiteSpace=wrap;html=1;labelBackgroundColor=none;fillColor=#f5f5f5;strokeColor=#666666;fontColor=#333333;" parent="WIyWlLk6GJQsqaUBKTNV-1" vertex="1">
          <mxGeometry x="342.58" y="1450" width="120" height="80" as="geometry"/>
        </mxCell>
        <mxCell id="U9G6t_5P7GZVKfGeQdNS-419" style="edgeStyle=orthogonalEdgeStyle;rounded=0;orthogonalLoop=1;jettySize=auto;html=1;exitX=1;exitY=0.5;exitDx=0;exitDy=0;entryX=0;entryY=0.5;entryDx=0;entryDy=0;" parent="WIyWlLk6GJQsqaUBKTNV-1" source="U9G6t_5P7GZVKfGeQdNS-143" target="U9G6t_5P7GZVKfGeQdNS-416" edge="1">
          <mxGeometry relative="1" as="geometry">
            <Array as="points">
              <mxPoint x="840" y="1940"/>
              <mxPoint x="840" y="1766"/>
            </Array>
          </mxGeometry>
        </mxCell>
        <mxCell id="U9G6t_5P7GZVKfGeQdNS-143" value="&lt;font face=&quot;Times New Roman&quot;&gt;Classified and Categorized Suitability Layer&lt;/font&gt;" style="rounded=0;whiteSpace=wrap;html=1;labelBackgroundColor=none;fillColor=#e1d5e7;strokeColor=#9673a6;" parent="WIyWlLk6GJQsqaUBKTNV-1" vertex="1">
          <mxGeometry x="682.63" y="1910" width="120" height="60" as="geometry"/>
        </mxCell>
        <mxCell id="U9G6t_5P7GZVKfGeQdNS-273" value="" style="edgeStyle=none;rounded=0;orthogonalLoop=1;jettySize=auto;html=1;" parent="WIyWlLk6GJQsqaUBKTNV-1" source="U9G6t_5P7GZVKfGeQdNS-144" target="U9G6t_5P7GZVKfGeQdNS-150" edge="1">
          <mxGeometry relative="1" as="geometry"/>
        </mxCell>
        <mxCell id="U9G6t_5P7GZVKfGeQdNS-144" value="&lt;font face=&quot;Times New Roman&quot;&gt;Slope&lt;/font&gt;" style="rounded=1;whiteSpace=wrap;html=1;fillColor=#dae8fc;strokeColor=#6c8ebf;" parent="WIyWlLk6GJQsqaUBKTNV-1" vertex="1">
          <mxGeometry x="182.57999999999998" y="1640" width="120" height="60" as="geometry"/>
        </mxCell>
        <mxCell id="U9G6t_5P7GZVKfGeQdNS-274" value="" style="edgeStyle=none;rounded=0;orthogonalLoop=1;jettySize=auto;html=1;" parent="WIyWlLk6GJQsqaUBKTNV-1" source="U9G6t_5P7GZVKfGeQdNS-145" target="U9G6t_5P7GZVKfGeQdNS-152" edge="1">
          <mxGeometry relative="1" as="geometry"/>
        </mxCell>
        <mxCell id="U9G6t_5P7GZVKfGeQdNS-145" value="&lt;font face=&quot;Times New Roman&quot;&gt;Urban Areas&lt;/font&gt;" style="rounded=1;whiteSpace=wrap;html=1;fillColor=#dae8fc;strokeColor=#6c8ebf;" parent="WIyWlLk6GJQsqaUBKTNV-1" vertex="1">
          <mxGeometry x="182.57999999999998" y="1730" width="120" height="60" as="geometry"/>
        </mxCell>
        <mxCell id="U9G6t_5P7GZVKfGeQdNS-275" value="" style="edgeStyle=none;rounded=0;orthogonalLoop=1;jettySize=auto;html=1;" parent="WIyWlLk6GJQsqaUBKTNV-1" source="U9G6t_5P7GZVKfGeQdNS-146" target="U9G6t_5P7GZVKfGeQdNS-151" edge="1">
          <mxGeometry relative="1" as="geometry"/>
        </mxCell>
        <mxCell id="U9G6t_5P7GZVKfGeQdNS-146" value="&lt;font face=&quot;Times New Roman&quot;&gt;Protected Landscape Sites&lt;/font&gt;" style="rounded=1;whiteSpace=wrap;html=1;fillColor=#dae8fc;strokeColor=#6c8ebf;" parent="WIyWlLk6GJQsqaUBKTNV-1" vertex="1">
          <mxGeometry x="182.57999999999998" y="1820" width="120" height="60" as="geometry"/>
        </mxCell>
        <mxCell id="U9G6t_5P7GZVKfGeQdNS-438" style="edgeStyle=orthogonalEdgeStyle;rounded=0;orthogonalLoop=1;jettySize=auto;html=1;exitX=1;exitY=0.5;exitDx=0;exitDy=0;entryX=0.5;entryY=0;entryDx=0;entryDy=0;" parent="WIyWlLk6GJQsqaUBKTNV-1" source="U9G6t_5P7GZVKfGeQdNS-147" target="U9G6t_5P7GZVKfGeQdNS-161" edge="1">
          <mxGeometry relative="1" as="geometry">
            <Array as="points">
              <mxPoint x="646" y="1850"/>
              <mxPoint x="646" y="1641"/>
              <mxPoint x="742" y="1641"/>
            </Array>
          </mxGeometry>
        </mxCell>
        <mxCell id="U9G6t_5P7GZVKfGeQdNS-147" value="&lt;font face=&quot;Times New Roman&quot;&gt;Classified based on distance from protected landscape sites&lt;/font&gt;" style="rounded=1;whiteSpace=wrap;html=1;fillColor=#f8cecc;strokeColor=#b85450;" parent="WIyWlLk6GJQsqaUBKTNV-1" vertex="1">
          <mxGeometry x="502.58" y="1820" width="120" height="60" as="geometry"/>
        </mxCell>
        <mxCell id="U9G6t_5P7GZVKfGeQdNS-436" style="edgeStyle=orthogonalEdgeStyle;rounded=0;orthogonalLoop=1;jettySize=auto;html=1;exitX=1;exitY=0.5;exitDx=0;exitDy=0;entryX=0.5;entryY=0;entryDx=0;entryDy=0;" parent="WIyWlLk6GJQsqaUBKTNV-1" source="U9G6t_5P7GZVKfGeQdNS-148" target="U9G6t_5P7GZVKfGeQdNS-161" edge="1">
          <mxGeometry relative="1" as="geometry">
            <Array as="points">
              <mxPoint x="646" y="1761"/>
              <mxPoint x="646" y="1641"/>
              <mxPoint x="742" y="1641"/>
            </Array>
          </mxGeometry>
        </mxCell>
        <mxCell id="U9G6t_5P7GZVKfGeQdNS-148" value="&lt;font face=&quot;Times New Roman&quot;&gt;Classified based on distance from urban areas&amp;nbsp;&lt;/font&gt;" style="rounded=1;whiteSpace=wrap;html=1;fillColor=#f8cecc;strokeColor=#b85450;" parent="WIyWlLk6GJQsqaUBKTNV-1" vertex="1">
          <mxGeometry x="502.58" y="1730" width="120" height="60" as="geometry"/>
        </mxCell>
        <mxCell id="U9G6t_5P7GZVKfGeQdNS-434" style="edgeStyle=orthogonalEdgeStyle;rounded=0;orthogonalLoop=1;jettySize=auto;html=1;exitX=1;exitY=0.5;exitDx=0;exitDy=0;entryX=0.5;entryY=0;entryDx=0;entryDy=0;" parent="WIyWlLk6GJQsqaUBKTNV-1" source="U9G6t_5P7GZVKfGeQdNS-149" target="U9G6t_5P7GZVKfGeQdNS-161" edge="1">
          <mxGeometry relative="1" as="geometry">
            <mxPoint x="650" y="1630" as="targetPoint"/>
            <Array as="points">
              <mxPoint x="646" y="1670"/>
              <mxPoint x="646" y="1641"/>
              <mxPoint x="742" y="1641"/>
            </Array>
          </mxGeometry>
        </mxCell>
        <mxCell id="U9G6t_5P7GZVKfGeQdNS-149" value="&lt;font face=&quot;Times New Roman&quot;&gt;Classified based on degree of slope&lt;/font&gt;" style="rounded=1;whiteSpace=wrap;html=1;fillColor=#f8cecc;strokeColor=#b85450;" parent="WIyWlLk6GJQsqaUBKTNV-1" vertex="1">
          <mxGeometry x="502.58" y="1640" width="120" height="60" as="geometry"/>
        </mxCell>
        <mxCell id="U9G6t_5P7GZVKfGeQdNS-282" value="" style="edgeStyle=none;rounded=0;orthogonalLoop=1;jettySize=auto;html=1;" parent="WIyWlLk6GJQsqaUBKTNV-1" source="U9G6t_5P7GZVKfGeQdNS-150" target="U9G6t_5P7GZVKfGeQdNS-149" edge="1">
          <mxGeometry relative="1" as="geometry"/>
        </mxCell>
        <mxCell id="U9G6t_5P7GZVKfGeQdNS-150" value="&lt;font face=&quot;Times New Roman&quot;&gt;Reclassify&lt;/font&gt;" style="shape=hexagon;perimeter=hexagonPerimeter2;whiteSpace=wrap;html=1;labelBackgroundColor=none;fillColor=#f5f5f5;strokeColor=#666666;fontColor=#333333;" parent="WIyWlLk6GJQsqaUBKTNV-1" vertex="1">
          <mxGeometry x="342.58" y="1630" width="120" height="80" as="geometry"/>
        </mxCell>
        <mxCell id="U9G6t_5P7GZVKfGeQdNS-280" value="" style="edgeStyle=none;rounded=0;orthogonalLoop=1;jettySize=auto;html=1;" parent="WIyWlLk6GJQsqaUBKTNV-1" source="U9G6t_5P7GZVKfGeQdNS-151" target="U9G6t_5P7GZVKfGeQdNS-147" edge="1">
          <mxGeometry relative="1" as="geometry"/>
        </mxCell>
        <mxCell id="U9G6t_5P7GZVKfGeQdNS-151" value="&lt;font face=&quot;Times New Roman&quot;&gt;Reclassify&lt;/font&gt;" style="shape=hexagon;perimeter=hexagonPerimeter2;whiteSpace=wrap;html=1;labelBackgroundColor=none;fillColor=#f5f5f5;strokeColor=#666666;fontColor=#333333;" parent="WIyWlLk6GJQsqaUBKTNV-1" vertex="1">
          <mxGeometry x="342.58" y="1810" width="120" height="80" as="geometry"/>
        </mxCell>
        <mxCell id="U9G6t_5P7GZVKfGeQdNS-281" value="" style="edgeStyle=none;rounded=0;orthogonalLoop=1;jettySize=auto;html=1;" parent="WIyWlLk6GJQsqaUBKTNV-1" source="U9G6t_5P7GZVKfGeQdNS-152" target="U9G6t_5P7GZVKfGeQdNS-148" edge="1">
          <mxGeometry relative="1" as="geometry"/>
        </mxCell>
        <mxCell id="U9G6t_5P7GZVKfGeQdNS-152" value="&lt;font face=&quot;Times New Roman&quot;&gt;Reclassify&lt;/font&gt;" style="shape=hexagon;perimeter=hexagonPerimeter2;whiteSpace=wrap;html=1;labelBackgroundColor=none;fillColor=#f5f5f5;strokeColor=#666666;fontColor=#333333;" parent="WIyWlLk6GJQsqaUBKTNV-1" vertex="1">
          <mxGeometry x="342.58" y="1720" width="120" height="80" as="geometry"/>
        </mxCell>
        <mxCell id="U9G6t_5P7GZVKfGeQdNS-279" value="" style="edgeStyle=none;rounded=0;orthogonalLoop=1;jettySize=auto;html=1;" parent="WIyWlLk6GJQsqaUBKTNV-1" source="U9G6t_5P7GZVKfGeQdNS-155" target="U9G6t_5P7GZVKfGeQdNS-159" edge="1">
          <mxGeometry relative="1" as="geometry"/>
        </mxCell>
        <mxCell id="U9G6t_5P7GZVKfGeQdNS-155" value="&lt;font face=&quot;Times New Roman&quot;&gt;Reclassify&lt;/font&gt;" style="shape=hexagon;perimeter=hexagonPerimeter2;whiteSpace=wrap;html=1;labelBackgroundColor=none;fillColor=#f5f5f5;strokeColor=#666666;fontColor=#333333;" parent="WIyWlLk6GJQsqaUBKTNV-1" vertex="1">
          <mxGeometry x="342.58" y="1900" width="120" height="80" as="geometry"/>
        </mxCell>
        <mxCell id="U9G6t_5P7GZVKfGeQdNS-276" value="" style="edgeStyle=none;rounded=0;orthogonalLoop=1;jettySize=auto;html=1;" parent="WIyWlLk6GJQsqaUBKTNV-1" source="U9G6t_5P7GZVKfGeQdNS-156" target="U9G6t_5P7GZVKfGeQdNS-155" edge="1">
          <mxGeometry relative="1" as="geometry"/>
        </mxCell>
        <mxCell id="U9G6t_5P7GZVKfGeQdNS-156" value="&lt;font face=&quot;Times New Roman&quot;&gt;Ecological Sites&lt;/font&gt;" style="rounded=1;whiteSpace=wrap;html=1;fillColor=#dae8fc;strokeColor=#6c8ebf;" parent="WIyWlLk6GJQsqaUBKTNV-1" vertex="1">
          <mxGeometry x="182.57999999999998" y="1910" width="120" height="60" as="geometry"/>
        </mxCell>
        <mxCell id="U9G6t_5P7GZVKfGeQdNS-435" style="edgeStyle=orthogonalEdgeStyle;rounded=0;orthogonalLoop=1;jettySize=auto;html=1;exitX=1;exitY=0.5;exitDx=0;exitDy=0;entryX=0.5;entryY=0;entryDx=0;entryDy=0;" parent="WIyWlLk6GJQsqaUBKTNV-1" source="U9G6t_5P7GZVKfGeQdNS-159" target="U9G6t_5P7GZVKfGeQdNS-161" edge="1">
          <mxGeometry relative="1" as="geometry">
            <Array as="points">
              <mxPoint x="646" y="1941"/>
              <mxPoint x="646" y="1641"/>
              <mxPoint x="742" y="1641"/>
            </Array>
          </mxGeometry>
        </mxCell>
        <mxCell id="U9G6t_5P7GZVKfGeQdNS-159" value="&lt;font face=&quot;Times New Roman&quot;&gt;Classified based on distance from ecological sites&lt;/font&gt;" style="rounded=1;whiteSpace=wrap;html=1;fillColor=#f8cecc;strokeColor=#b85450;" parent="WIyWlLk6GJQsqaUBKTNV-1" vertex="1">
          <mxGeometry x="502.58" y="1910" width="120" height="60" as="geometry"/>
        </mxCell>
        <mxCell id="U9G6t_5P7GZVKfGeQdNS-328" style="edgeStyle=none;rounded=0;orthogonalLoop=1;jettySize=auto;html=1;exitX=0.5;exitY=1;exitDx=0;exitDy=0;entryX=0.5;entryY=0;entryDx=0;entryDy=0;" parent="WIyWlLk6GJQsqaUBKTNV-1" source="U9G6t_5P7GZVKfGeQdNS-161" target="U9G6t_5P7GZVKfGeQdNS-143" edge="1">
          <mxGeometry relative="1" as="geometry"/>
        </mxCell>
        <mxCell id="U9G6t_5P7GZVKfGeQdNS-161" value="&lt;font face=&quot;Times New Roman&quot; style=&quot;font-size: 18px&quot;&gt;Weight Factors using AHP&lt;/font&gt;" style="ellipse;whiteSpace=wrap;html=1;labelBackgroundColor=none;rotation=0;fillColor=#d5e8d4;strokeColor=#82b366;" parent="WIyWlLk6GJQsqaUBKTNV-1" vertex="1">
          <mxGeometry x="668.95" y="1729.9999999999998" width="147.37" height="95.86" as="geometry"/>
        </mxCell>
        <mxCell id="U9G6t_5P7GZVKfGeQdNS-164" value="&lt;font face=&quot;Times New Roman&quot; style=&quot;font-size: 18px&quot;&gt;Most Suitable (economically viable) Onshore Wind Farm Sites.&lt;/font&gt;" style="rounded=0;whiteSpace=wrap;html=1;labelBackgroundColor=none;fillColor=#e1d5e7;strokeColor=#9673a6;" parent="WIyWlLk6GJQsqaUBKTNV-1" vertex="1">
          <mxGeometry x="1280" y="1415" width="240" height="120" as="geometry"/>
        </mxCell>
        <mxCell id="U9G6t_5P7GZVKfGeQdNS-230" style="edgeStyle=none;rounded=0;orthogonalLoop=1;jettySize=auto;html=1;exitX=1;exitY=0.5;exitDx=0;exitDy=0;" parent="WIyWlLk6GJQsqaUBKTNV-1" source="U9G6t_5P7GZVKfGeQdNS-91" target="U9G6t_5P7GZVKfGeQdNS-91" edge="1">
          <mxGeometry relative="1" as="geometry"/>
        </mxCell>
        <mxCell id="U9G6t_5P7GZVKfGeQdNS-404" style="edgeStyle=orthogonalEdgeStyle;rounded=0;orthogonalLoop=1;jettySize=auto;html=1;exitX=1;exitY=0.5;exitDx=0;exitDy=0;entryX=0;entryY=0.5;entryDx=0;entryDy=0;" parent="WIyWlLk6GJQsqaUBKTNV-1" source="U9G6t_5P7GZVKfGeQdNS-332" target="U9G6t_5P7GZVKfGeQdNS-399" edge="1">
          <mxGeometry relative="1" as="geometry"/>
        </mxCell>
        <mxCell id="U9G6t_5P7GZVKfGeQdNS-332" value="&lt;blockquote&gt;&lt;font face=&quot;Times New Roman&quot;&gt;Raster Calculator Slope &amp;gt;15%&lt;/font&gt;&lt;/blockquote&gt;" style="shape=hexagon;perimeter=hexagonPerimeter2;whiteSpace=wrap;html=1;labelBackgroundColor=none;align=center;fillColor=#f5f5f5;strokeColor=#666666;fontColor=#333333;" parent="WIyWlLk6GJQsqaUBKTNV-1" vertex="1">
          <mxGeometry x="270" y="210" width="120" height="80" as="geometry"/>
        </mxCell>
        <mxCell id="U9G6t_5P7GZVKfGeQdNS-349" value="&lt;span style=&quot;font-family: &amp;#34;times new roman&amp;#34; ; white-space: normal&quot;&gt;Union &amp;amp; Clip to&amp;nbsp;&lt;/span&gt;&lt;br style=&quot;font-family: &amp;#34;times new roman&amp;#34; ; white-space: normal&quot;&gt;&lt;span style=&quot;font-family: &amp;#34;times new roman&amp;#34; ; white-space: normal&quot;&gt;Study Area&lt;/span&gt;" style="shape=hexagon;perimeter=hexagonPerimeter2;whiteSpace=wrap;html=1;labelBackgroundColor=none;flipH=0;flipV=0;direction=east;fillColor=#f5f5f5;strokeColor=#666666;fontColor=#333333;" parent="WIyWlLk6GJQsqaUBKTNV-1" vertex="1">
          <mxGeometry x="930" y="719.38" width="120" height="80" as="geometry"/>
        </mxCell>
        <mxCell id="U9G6t_5P7GZVKfGeQdNS-355" value="" style="edgeStyle=none;rounded=0;orthogonalLoop=1;jettySize=auto;html=1;" parent="WIyWlLk6GJQsqaUBKTNV-1" source="U9G6t_5P7GZVKfGeQdNS-351" target="U9G6t_5P7GZVKfGeQdNS-130" edge="1">
          <mxGeometry relative="1" as="geometry"/>
        </mxCell>
        <mxCell id="U9G6t_5P7GZVKfGeQdNS-351" value="&lt;font&gt;&lt;font face=&quot;Times New Roman&quot; style=&quot;font-size: 12px&quot;&gt;Union &amp;amp; Clip to &lt;br&gt;Study Area&lt;/font&gt;&lt;br&gt;&lt;/font&gt;" style="shape=hexagon;perimeter=hexagonPerimeter2;whiteSpace=wrap;html=1;labelBackgroundColor=none;flipH=0;flipV=0;direction=east;fillColor=#f5f5f5;strokeColor=#666666;fontColor=#333333;" parent="WIyWlLk6GJQsqaUBKTNV-1" vertex="1">
          <mxGeometry x="930" y="957.5" width="120" height="82.5" as="geometry"/>
        </mxCell>
        <mxCell id="U9G6t_5P7GZVKfGeQdNS-356" style="edgeStyle=none;rounded=0;orthogonalLoop=1;jettySize=auto;html=1;exitX=0;exitY=0.5;exitDx=0;exitDy=0;" parent="WIyWlLk6GJQsqaUBKTNV-1" source="U9G6t_5P7GZVKfGeQdNS-136" target="U9G6t_5P7GZVKfGeQdNS-136" edge="1">
          <mxGeometry relative="1" as="geometry"/>
        </mxCell>
        <mxCell id="U9G6t_5P7GZVKfGeQdNS-371" style="edgeStyle=orthogonalEdgeStyle;rounded=0;orthogonalLoop=1;jettySize=auto;html=1;exitX=1;exitY=0.5;exitDx=0;exitDy=0;entryX=0;entryY=0.5;entryDx=0;entryDy=0;" parent="WIyWlLk6GJQsqaUBKTNV-1" source="U9G6t_5P7GZVKfGeQdNS-362" target="U9G6t_5P7GZVKfGeQdNS-80" edge="1">
          <mxGeometry relative="1" as="geometry">
            <Array as="points">
              <mxPoint x="270" y="990"/>
              <mxPoint x="270" y="920"/>
            </Array>
          </mxGeometry>
        </mxCell>
        <mxCell id="U9G6t_5P7GZVKfGeQdNS-362" value="&lt;font face=&quot;Times New Roman&quot;&gt;National Trails&lt;/font&gt;" style="rounded=1;whiteSpace=wrap;html=1;spacing=1;fillColor=#fff2cc;strokeColor=#d6b656;" parent="WIyWlLk6GJQsqaUBKTNV-1" vertex="1">
          <mxGeometry x="142.63" y="960" width="120" height="60" as="geometry"/>
        </mxCell>
        <mxCell id="U9G6t_5P7GZVKfGeQdNS-381" value="" style="edgeStyle=orthogonalEdgeStyle;rounded=0;orthogonalLoop=1;jettySize=auto;html=1;" parent="WIyWlLk6GJQsqaUBKTNV-1" source="U9G6t_5P7GZVKfGeQdNS-357" target="U9G6t_5P7GZVKfGeQdNS-84" edge="1">
          <mxGeometry relative="1" as="geometry"/>
        </mxCell>
        <mxCell id="U9G6t_5P7GZVKfGeQdNS-357" value="&lt;font face=&quot;Times New Roman&quot;&gt;Euclidean Distance (Spatial Analyst)&amp;nbsp;&lt;br&gt;&lt;/font&gt;&lt;span style=&quot;background-color: rgb(245 , 245 , 245)&quot;&gt;&lt;span style=&quot;color: rgb(34 , 34 , 34) ; font-family: &amp;#34;times new roman&amp;#34; ; text-align: left&quot;&gt;≤&lt;/span&gt;&lt;span style=&quot;font-family: &amp;#34;times new roman&amp;#34; ; text-align: left&quot;&gt;&amp;nbsp;3&lt;/span&gt;&lt;span style=&quot;color: rgb(34 , 34 , 34) ; font-family: &amp;#34;times new roman&amp;#34;&quot;&gt;0,000m&lt;/span&gt;&lt;/span&gt;&lt;span style=&quot;color: rgb(34 , 34 , 34) ; font-family: &amp;#34;times new roman&amp;#34; ; text-align: left ; background-color: rgb(255 , 255 , 255)&quot;&gt;&lt;br&gt;&lt;/span&gt;" style="shape=hexagon;perimeter=hexagonPerimeter2;whiteSpace=wrap;html=1;labelBackgroundColor=none;fillColor=#f5f5f5;strokeColor=#666666;fontColor=#333333;" parent="WIyWlLk6GJQsqaUBKTNV-1" vertex="1">
          <mxGeometry x="431.32" y="1027.5" width="117.37" height="80" as="geometry"/>
        </mxCell>
        <mxCell id="U9G6t_5P7GZVKfGeQdNS-347" value="&lt;font face=&quot;Times New Roman&quot; style=&quot;white-space: normal&quot;&gt;&lt;span style=&quot;color: rgb(34 , 34 , 34) ; text-align: left ; background-color: rgb(255 , 255 , 255)&quot;&gt;&lt;br&gt;&lt;/span&gt;&lt;/font&gt;&lt;span style=&quot;font-family: &amp;#34;times new roman&amp;#34;&quot;&gt;Union &amp;amp; Clip to&lt;/span&gt;&lt;br style=&quot;font-family: &amp;#34;times new roman&amp;#34;&quot;&gt;&lt;span style=&quot;font-family: &amp;#34;times new roman&amp;#34;&quot;&gt;Study Area&lt;/span&gt;&lt;font face=&quot;Times New Roman&quot; style=&quot;white-space: normal&quot;&gt;&lt;br&gt;&lt;/font&gt;&lt;span style=&quot;color: rgba(0 , 0 , 0 , 0) ; font-family: monospace ; font-size: 0px&quot;&gt;%3CmxGraphModel%3E%3Croot%3E%3CmxCell%20id%3D%220%22%2F%3E%3CmxCell%20id%3D%221%22%20parent%3D%220%22%2F%3E%3CmxCell%20id%3D%222%22%20value%3D%22%26lt%3Bblockquote%26gt%3B%26lt%3Bfont%20face%3D%26quot%3BTimes%20New%20Roman%26quot%3B%26gt%3BSlope%20(Spatial%20Analyst)%20%26amp%3Bgt%3B15%25%26lt%3B%2Ffont%26gt%3B%26lt%3B%2Fblockquote%26gt%3B%22%20style%3D%22shape%3Dhexagon%3Bperimeter%3DhexagonPerimeter2%3BwhiteSpace%3Dwrap%3Bhtml%3D1%3BlabelBackgroundColor%3Dnone%3Balign%3Dcenter%3B%22%20vertex%3D%221%22%20parent%3D%221%22%3E%3CmxGeometry%20x%3D%22362.63%22%20y%3D%22210%22%20width%3D%22120%22%20height%3D%2280%22%20as%3D%22geometry%22%2F%3E%3C%2FmxCell%3E%3C%2Froot%3E%3C%2FmxGraphModel%3E&lt;/span&gt;&lt;font face=&quot;Times New Roman&quot; style=&quot;white-space: normal&quot;&gt;&amp;nbsp;&lt;/font&gt;&lt;span style=&quot;color: rgba(0 , 0 , 0 , 0) ; font-family: monospace ; font-size: 0px&quot;&gt;%3CmxGraphModel%3E%3Croot%3E%3CmxCell%20id%3D%220%22%2F%3E%3CmxCell%20id%3D%221%22%20parent%3D%220%22%2F%3E%3CmxCell%20id%3D%222%22%20value%3D%22%26lt%3Bblockquote%26gt%3B%26lt%3Bfont%20face%3D%26quot%3BTimes%20New%20Roman%26quot%3B%26gt%3BSlope%20(Spatial%20Analyst)%20%26amp%3Bgt%3B15%25%26lt%3B%2Ffont%26gt%3B%26lt%3B%2Fblockquote%26gt%3B%22%20style%3D%22shape%3Dhexagon%3Bperimeter%3DhexagonPerimeter2%3BwhiteSpace%3Dwrap%3Bhtml%3D1%3BlabelBackgroundColor%3Dnone%3Balign%3Dcenter%3B%22%20vertex%3D%221%22%20parent%3D%221%22%3E%3CmxGeometry%20x%3D%22362.63%22%20y%3D%22210%22%20width%3D%22120%22%20height%3D%2280%22%20as%3D%22geometry%22%2F%3E%3C%2FmxCell%3E%3C%2Froot%3E%3C%2FmxGraphModel%3E&lt;/span&gt;" style="shape=hexagon;perimeter=hexagonPerimeter2;whiteSpace=wrap;html=1;labelBackgroundColor=none;flipH=0;flipV=0;direction=east;fillColor=#f5f5f5;strokeColor=#666666;fontColor=#333333;" parent="WIyWlLk6GJQsqaUBKTNV-1" vertex="1">
          <mxGeometry x="930" y="485" width="120" height="80" as="geometry"/>
        </mxCell>
        <mxCell id="U9G6t_5P7GZVKfGeQdNS-393" style="edgeStyle=none;rounded=0;orthogonalLoop=1;jettySize=auto;html=1;" parent="WIyWlLk6GJQsqaUBKTNV-1" source="U9G6t_5P7GZVKfGeQdNS-91" target="U9G6t_5P7GZVKfGeQdNS-347" edge="1">
          <mxGeometry relative="1" as="geometry">
            <mxPoint x="1119.9999999999998" y="525" as="sourcePoint"/>
            <mxPoint x="909.9999999999998" y="525" as="targetPoint"/>
          </mxGeometry>
        </mxCell>
        <mxCell id="U9G6t_5P7GZVKfGeQdNS-391" value="&lt;font face=&quot;Times New Roman&quot;&gt;Clip to Study Area&lt;/font&gt;" style="shape=hexagon;perimeter=hexagonPerimeter2;whiteSpace=wrap;html=1;labelBackgroundColor=none;fillColor=#f5f5f5;strokeColor=#666666;fontColor=#333333;" parent="WIyWlLk6GJQsqaUBKTNV-1" vertex="1">
          <mxGeometry x="1210" y="160" width="120" height="80" as="geometry"/>
        </mxCell>
        <mxCell id="U9G6t_5P7GZVKfGeQdNS-394" style="edgeStyle=orthogonalEdgeStyle;rounded=0;orthogonalLoop=1;jettySize=auto;html=1;exitX=0;exitY=0.5;exitDx=0;exitDy=0;entryX=1;entryY=0.5;entryDx=0;entryDy=0;" parent="WIyWlLk6GJQsqaUBKTNV-1" source="U9G6t_5P7GZVKfGeQdNS-22" target="U9G6t_5P7GZVKfGeQdNS-391" edge="1">
          <mxGeometry relative="1" as="geometry">
            <mxPoint x="1269.8823529411766" y="200.23529411764707" as="sourcePoint"/>
            <mxPoint x="1069.8823529411766" y="200.23529411764707" as="targetPoint"/>
          </mxGeometry>
        </mxCell>
        <mxCell id="U9G6t_5P7GZVKfGeQdNS-395" value="&lt;font face=&quot;Times New Roman&quot;&gt;Raster to Polygon&lt;/font&gt;" style="shape=hexagon;perimeter=hexagonPerimeter2;whiteSpace=wrap;html=1;labelBackgroundColor=none;fillColor=#f5f5f5;strokeColor=#666666;fontColor=#333333;" parent="WIyWlLk6GJQsqaUBKTNV-1" vertex="1">
          <mxGeometry x="950" y="160" width="120" height="80" as="geometry"/>
        </mxCell>
        <mxCell id="U9G6t_5P7GZVKfGeQdNS-398" style="edgeStyle=orthogonalEdgeStyle;rounded=0;orthogonalLoop=1;jettySize=auto;html=1;exitX=0;exitY=0.5;exitDx=0;exitDy=0;entryX=1;entryY=0.5;entryDx=0;entryDy=0;" parent="WIyWlLk6GJQsqaUBKTNV-1" source="U9G6t_5P7GZVKfGeQdNS-69" target="U9G6t_5P7GZVKfGeQdNS-395" edge="1">
          <mxGeometry relative="1" as="geometry">
            <mxPoint x="1060.3333333333335" y="190" as="sourcePoint"/>
            <mxPoint x="940.3333333333335" y="200" as="targetPoint"/>
          </mxGeometry>
        </mxCell>
        <mxCell id="U9G6t_5P7GZVKfGeQdNS-406" style="edgeStyle=orthogonalEdgeStyle;rounded=0;orthogonalLoop=1;jettySize=auto;html=1;exitX=1;exitY=0.5;exitDx=0;exitDy=0;entryX=0;entryY=0.5;entryDx=0;entryDy=0;" parent="WIyWlLk6GJQsqaUBKTNV-1" target="U9G6t_5P7GZVKfGeQdNS-53" edge="1">
          <mxGeometry relative="1" as="geometry">
            <mxPoint x="533.1958620689655" y="250.27586206896558" as="targetPoint"/>
            <mxPoint x="522.6342857142857" y="250.14285714285722" as="sourcePoint"/>
          </mxGeometry>
        </mxCell>
        <mxCell id="U9G6t_5P7GZVKfGeQdNS-408" style="edgeStyle=orthogonalEdgeStyle;rounded=0;orthogonalLoop=1;jettySize=auto;html=1;exitX=1;exitY=0.5;exitDx=0;exitDy=0;entryX=0;entryY=0.5;entryDx=0;entryDy=0;" parent="WIyWlLk6GJQsqaUBKTNV-1" source="U9G6t_5P7GZVKfGeQdNS-399" target="U9G6t_5P7GZVKfGeQdNS-53" edge="1">
          <mxGeometry relative="1" as="geometry"/>
        </mxCell>
        <mxCell id="U9G6t_5P7GZVKfGeQdNS-399" value="&lt;font face=&quot;Times New Roman&quot;&gt;Raster to Polygon&lt;/font&gt;" style="shape=hexagon;perimeter=hexagonPerimeter2;whiteSpace=wrap;html=1;labelBackgroundColor=none;fillColor=#f5f5f5;strokeColor=#666666;fontColor=#333333;" parent="WIyWlLk6GJQsqaUBKTNV-1" vertex="1">
          <mxGeometry x="402.63" y="210" width="120" height="80" as="geometry"/>
        </mxCell>
        <mxCell id="U9G6t_5P7GZVKfGeQdNS-400" value="&lt;font face=&quot;Times New Roman&quot;&gt;Raster to Polygon&lt;/font&gt;" style="shape=hexagon;perimeter=hexagonPerimeter2;whiteSpace=wrap;html=1;labelBackgroundColor=none;fillColor=#f5f5f5;strokeColor=#666666;fontColor=#333333;" parent="WIyWlLk6GJQsqaUBKTNV-1" vertex="1">
          <mxGeometry x="402.63" y="110" width="120" height="80" as="geometry"/>
        </mxCell>
        <mxCell id="U9G6t_5P7GZVKfGeQdNS-423" style="edgeStyle=orthogonalEdgeStyle;rounded=0;orthogonalLoop=1;jettySize=auto;html=1;exitX=0.5;exitY=0;exitDx=0;exitDy=0;entryX=0.5;entryY=1;entryDx=0;entryDy=0;" parent="WIyWlLk6GJQsqaUBKTNV-1" source="U9G6t_5P7GZVKfGeQdNS-416" target="U9G6t_5P7GZVKfGeQdNS-422" edge="1">
          <mxGeometry relative="1" as="geometry"/>
        </mxCell>
        <mxCell id="U9G6t_5P7GZVKfGeQdNS-416" value="&lt;span style=&quot;font-family: &amp;#34;times new roman&amp;#34; ; white-space: normal&quot;&gt;&lt;font style=&quot;font-size: 12px&quot;&gt;Intersect &amp;amp; calculate &lt;br&gt;geometry for area of suitable&lt;br&gt;sites available&lt;/font&gt;&lt;/span&gt;" style="shape=hexagon;perimeter=hexagonPerimeter2;whiteSpace=wrap;html=1;labelBackgroundColor=none;fillColor=#f5f5f5;strokeColor=#666666;fontColor=#333333;" parent="WIyWlLk6GJQsqaUBKTNV-1" vertex="1">
          <mxGeometry x="880" y="1710.8600000000001" width="170" height="110" as="geometry"/>
        </mxCell>
        <mxCell id="U9G6t_5P7GZVKfGeQdNS-420" value="Text" style="text;html=1;align=center;verticalAlign=middle;resizable=0;points=[];autosize=1;" parent="WIyWlLk6GJQsqaUBKTNV-1" vertex="1">
          <mxGeometry x="-285" y="441" width="40" height="20" as="geometry"/>
        </mxCell>
        <mxCell id="U9G6t_5P7GZVKfGeQdNS-421" value="&lt;font face=&quot;Times New Roman&quot;&gt;Union&lt;/font&gt;" style="shape=hexagon;perimeter=hexagonPerimeter2;whiteSpace=wrap;html=1;labelBackgroundColor=none;fillColor=#f5f5f5;strokeColor=#666666;fontColor=#333333;" parent="WIyWlLk6GJQsqaUBKTNV-1" vertex="1">
          <mxGeometry x="682.63" y="160" width="120" height="80" as="geometry"/>
        </mxCell>
        <mxCell id="U9G6t_5P7GZVKfGeQdNS-448" style="edgeStyle=orthogonalEdgeStyle;rounded=0;orthogonalLoop=1;jettySize=auto;html=1;exitX=0.5;exitY=0;exitDx=0;exitDy=0;entryX=0.5;entryY=1;entryDx=0;entryDy=0;" parent="WIyWlLk6GJQsqaUBKTNV-1" source="U9G6t_5P7GZVKfGeQdNS-422" target="U9G6t_5P7GZVKfGeQdNS-441" edge="1">
          <mxGeometry relative="1" as="geometry"/>
        </mxCell>
        <mxCell id="U9G6t_5P7GZVKfGeQdNS-422" value="&lt;font face=&quot;Times New Roman&quot; style=&quot;white-space: normal&quot;&gt;Use fishnet tool to assess&lt;br&gt;how many turbines can be deployed on a suitable site (turbine layer)&lt;br&gt;&lt;/font&gt;" style="shape=hexagon;perimeter=hexagonPerimeter2;whiteSpace=wrap;html=1;labelBackgroundColor=none;fillColor=#f5f5f5;strokeColor=#666666;fontColor=#333333;" parent="WIyWlLk6GJQsqaUBKTNV-1" vertex="1">
          <mxGeometry x="880" y="1560" width="170" height="110" as="geometry"/>
        </mxCell>
        <mxCell id="U9G6t_5P7GZVKfGeQdNS-449" style="edgeStyle=orthogonalEdgeStyle;rounded=0;orthogonalLoop=1;jettySize=auto;html=1;exitX=1;exitY=0.5;exitDx=0;exitDy=0;entryX=0;entryY=0.5;entryDx=0;entryDy=0;" parent="WIyWlLk6GJQsqaUBKTNV-1" source="U9G6t_5P7GZVKfGeQdNS-441" target="U9G6t_5P7GZVKfGeQdNS-443" edge="1">
          <mxGeometry relative="1" as="geometry"/>
        </mxCell>
        <mxCell id="U9G6t_5P7GZVKfGeQdNS-441" value="&lt;font face=&quot;Times New Roman&quot;&gt;Add fields in turbine layer for&lt;br&gt;turbine dimensions, viewing height &amp;amp; zone of visibility&lt;br&gt;&lt;/font&gt;" style="shape=hexagon;perimeter=hexagonPerimeter2;whiteSpace=wrap;html=1;labelBackgroundColor=none;fillColor=#f5f5f5;strokeColor=#666666;fontColor=#333333;" parent="WIyWlLk6GJQsqaUBKTNV-1" vertex="1">
          <mxGeometry x="880" y="1420" width="170" height="110" as="geometry"/>
        </mxCell>
        <mxCell id="U9G6t_5P7GZVKfGeQdNS-451" style="edgeStyle=orthogonalEdgeStyle;rounded=0;orthogonalLoop=1;jettySize=auto;html=1;exitX=0.5;exitY=1;exitDx=0;exitDy=0;entryX=0.5;entryY=0;entryDx=0;entryDy=0;" parent="WIyWlLk6GJQsqaUBKTNV-1" source="U9G6t_5P7GZVKfGeQdNS-442" target="U9G6t_5P7GZVKfGeQdNS-445" edge="1">
          <mxGeometry relative="1" as="geometry"/>
        </mxCell>
        <mxCell id="U9G6t_5P7GZVKfGeQdNS-442" value="&lt;font face=&quot;Times New Roman&quot;&gt;Create Visibility Raster with Viewshed&lt;br&gt;&lt;/font&gt;" style="shape=hexagon;perimeter=hexagonPerimeter2;whiteSpace=wrap;html=1;labelBackgroundColor=none;fillColor=#f5f5f5;strokeColor=#666666;fontColor=#333333;" parent="WIyWlLk6GJQsqaUBKTNV-1" vertex="1">
          <mxGeometry x="1080.13" y="1560" width="170" height="110" as="geometry"/>
        </mxCell>
        <mxCell id="U9G6t_5P7GZVKfGeQdNS-450" style="edgeStyle=orthogonalEdgeStyle;rounded=0;orthogonalLoop=1;jettySize=auto;html=1;exitX=0.5;exitY=1;exitDx=0;exitDy=0;entryX=0.5;entryY=0;entryDx=0;entryDy=0;" parent="WIyWlLk6GJQsqaUBKTNV-1" source="U9G6t_5P7GZVKfGeQdNS-443" target="U9G6t_5P7GZVKfGeQdNS-442" edge="1">
          <mxGeometry relative="1" as="geometry"/>
        </mxCell>
        <mxCell id="U9G6t_5P7GZVKfGeQdNS-443" value="&lt;font face=&quot;Times New Roman&quot;&gt;&lt;font style=&quot;font-size: 12px&quot;&gt;Add observation points in sensitive areas&lt;/font&gt;&lt;br&gt;&lt;/font&gt;" style="shape=hexagon;perimeter=hexagonPerimeter2;whiteSpace=wrap;html=1;labelBackgroundColor=none;fillColor=#f5f5f5;strokeColor=#666666;fontColor=#333333;" parent="WIyWlLk6GJQsqaUBKTNV-1" vertex="1">
          <mxGeometry x="1080.13" y="1420" width="170" height="110" as="geometry"/>
        </mxCell>
        <mxCell id="U9G6t_5P7GZVKfGeQdNS-452" style="edgeStyle=orthogonalEdgeStyle;rounded=0;orthogonalLoop=1;jettySize=auto;html=1;exitX=1;exitY=0.5;exitDx=0;exitDy=0;entryX=0;entryY=0.5;entryDx=0;entryDy=0;" parent="WIyWlLk6GJQsqaUBKTNV-1" source="U9G6t_5P7GZVKfGeQdNS-445" target="U9G6t_5P7GZVKfGeQdNS-446" edge="1">
          <mxGeometry relative="1" as="geometry">
            <mxPoint x="1310" y="1766.1428571428573" as="targetPoint"/>
          </mxGeometry>
        </mxCell>
        <mxCell id="U9G6t_5P7GZVKfGeQdNS-445" value="&lt;font face=&quot;Times New Roman&quot;&gt;Analysis Mask to the extent of sensitive areas&lt;br&gt;&lt;/font&gt;" style="shape=hexagon;perimeter=hexagonPerimeter2;whiteSpace=wrap;html=1;labelBackgroundColor=none;fillColor=#f5f5f5;strokeColor=#666666;fontColor=#333333;" parent="WIyWlLk6GJQsqaUBKTNV-1" vertex="1">
          <mxGeometry x="1080.13" y="1710.86" width="170" height="110" as="geometry"/>
        </mxCell>
        <mxCell id="U9G6t_5P7GZVKfGeQdNS-454" value="" style="edgeStyle=orthogonalEdgeStyle;rounded=0;orthogonalLoop=1;jettySize=auto;html=1;entryX=0.5;entryY=1;entryDx=0;entryDy=0;" parent="WIyWlLk6GJQsqaUBKTNV-1" source="U9G6t_5P7GZVKfGeQdNS-446" target="U9G6t_5P7GZVKfGeQdNS-164" edge="1">
          <mxGeometry relative="1" as="geometry">
            <mxPoint x="1400" y="1630.86" as="targetPoint"/>
          </mxGeometry>
        </mxCell>
        <mxCell id="U9G6t_5P7GZVKfGeQdNS-446" value="&lt;font face=&quot;Times New Roman&quot;&gt;Calculate visibility percentage&lt;br&gt;&amp;nbsp;at a given spot with raster calculator&lt;br&gt;&lt;/font&gt;" style="shape=hexagon;perimeter=hexagonPerimeter2;whiteSpace=wrap;html=1;labelBackgroundColor=none;fillColor=#f5f5f5;strokeColor=#666666;fontColor=#333333;" parent="WIyWlLk6GJQsqaUBKTNV-1" vertex="1">
          <mxGeometry x="1315" y="1710.86" width="170" height="110" as="geometry"/>
        </mxCell>
      </root>
    </mxGraphModel>
  </diagram>
</mxfile>
